<?xml version="1.0" standalone="no"?>
<!DOCTYPE svg PUBLIC "-//W3C//DTD SVG 1.1//EN" "http://www.w3.org/Graphics/SVG/1.1/DTD/svg11.dtd" >
<svg xmlns="http://www.w3.org/2000/svg">
<metadata>Generated by IcoMoon</metadata>
<defs>
<font id="icomoon" horiz-adv-x="1024">
<font-face units-per-em="1024" ascent="960" descent="-64" />
<missing-glyph horiz-adv-x="1024" />
<glyph unicode="&#x20;" horiz-adv-x="512" d="" />
<glyph unicode="&#xe900;" glyph-name="afaf-2" horiz-adv-x="598" d="M587.264 471.552l-478.72 478.208c-6.073 6.035-14.332 9.878-23.485 10.238l-0.067 0.002c-9.22-0.362-17.479-4.205-23.554-10.242l-51.198-51.198c-6.035-6.073-9.878-14.332-10.238-23.485l-0.002-0.067c0.333-9.388 4.176-17.819 10.249-24.073l-0.009 0.009 403.456-402.944-403.456-403.456c-6.035-6.073-9.878-14.332-10.238-23.485l-0.002-0.067c0.134-9.263 4.032-17.59 10.229-23.541l51.211-51.211c6.073-6.035 14.332-9.878 23.485-10.238l0.067-0.002c9.22 0.362 17.479 4.205 23.554 10.242l-0.002-0.002 478.72 478.208c6.295 5.901 10.216 14.269 10.216 23.552s-3.922 17.651-10.199 23.536l-0.018 0.016z" />
<glyph unicode="&#xe901;" glyph-name="eyeglasses" d="M1006.933 482.133h-37.205c-16.23 96.7-99.84 170.667-200.499 170.667-99.362 0-182.545-70.298-201.813-163.482-16.572 13.892-35.482 21.265-55.415 21.265-19.917 0-38.81-7.373-55.381-21.248-19.046 93.184-101.205 163.465-199.39 163.465-107.793 0-196.386-82.79-205.158-187.733h-35.004c-9.438 0-17.067-7.646-17.067-17.067s7.629-17.067 17.067-17.067h35.004c8.772-104.943 97.365-187.733 205.158-187.733 110.37 0 200.294 88.866 203.281 199.185 14.558 21.931 32.683 34.065 51.49 34.065s36.932-12.151 51.49-34.065c3.038-110.319 94.054-199.185 205.739-199.185 112.247 0 203.571 91.87 203.571 204.8h34.133c9.438 0 17.067 7.646 17.067 17.067s-7.629 17.067-17.067 17.067zM257.229 277.333c-94.771 0-171.895 76.561-171.895 170.667s77.124 170.667 171.895 170.667c95.027 0 169.438-74.974 169.438-170.667s-74.411-170.667-169.438-170.667zM769.229 277.333c-94.771 0-171.895 76.561-171.895 170.667s77.124 170.667 171.895 170.667c95.027 0 169.438-74.974 169.438-170.667s-74.411-170.667-169.438-170.667z" />
<glyph unicode="&#xe902;" glyph-name="left-arrow-black-button-square" d="M896 960h-768c-70.688 0-128-57.312-128-128v-768c0-70.688 57.312-128 128-128h768c70.688 0 128 57.312 128 128v768c0 70.688-57.312 128-128 128zM693.921 182.56c12.641-12.577 12.641-32.96 0-45.536s-33.088-12.577-45.729 0l-287.103 286.081c-6.753 6.72-9.601 15.583-9.152 24.382-0.448 8.769 2.431 17.666 9.152 24.385l287.103 286.081c12.641 12.576 33.088 12.576 45.729 0s12.641-32.96 0-45.536l-265.889-264.928 265.889-264.928z" />
<glyph unicode="&#xe903;" glyph-name="chat" d="M801.344 362.496v399.584c0 39.488-32 71.552-71.552 71.552h-626.272c-39.52 0.032-71.552-32.032-71.552-71.552v-399.584c0-39.52 32.032-71.552 71.552-71.552h119.328v-164.384l182.528 164.384h324.384c39.584 0 71.584 32.032 71.584 71.552zM920.48 676.544h-89.536c0 0 0-319.104 0-349.088s-38.912-68.544-68.896-68.544-350.24-1.76-350.24-1.76c0-39.52 32.032-63.552 71.552-63.552h137.888l179.904-163.264-0.224 163.264h119.552c39.552 0 71.552 24.032 71.552 63.552v349.824c0 39.488-32 69.568-71.552 69.568z" />
<glyph unicode="&#xe904;" glyph-name="star" d="M1020.192 558.176c-8.864 25.568-31.616 44.288-59.008 48.352l-266.432 39.616-115.808 240.448c-12.192 25.248-38.272 41.408-66.944 41.408s-54.752-16.16-66.944-41.408l-115.808-240.448-266.464-39.616c-27.36-4.064-50.112-22.784-58.944-48.352-8.8-25.632-2.144-53.856 17.184-73.12l195.264-194.944-45.28-270.432c-4.608-27.232 7.2-54.56 30.336-70.496 12.704-8.736 27.648-13.184 42.592-13.184 12.288 0 24.608 3.008 35.776 8.992l232.288 125.056 232.32-125.056c11.168-5.984 23.488-8.992 35.744-8.992 14.944 0 29.888 4.448 42.624 13.184 23.136 15.936 34.88 43.264 30.304 70.496l-45.312 270.432 195.328 194.944c19.296 19.296 25.92 47.52 17.184 73.12zM754.816 340.384c-16.384-16.32-23.808-39.328-20.064-61.888l45.312-270.432-232.32 124.992c-11.136 6.016-23.424 8.992-35.776 8.992-12.288 0-24.608-3.008-35.744-8.992l-232.32-124.992 45.312 270.432c3.776 22.56-3.648 45.568-20.032 61.888l-195.264 194.944 266.432 39.68c24.352 3.616 45.312 18.848 55.776 40.576l115.872 240.384 115.84-240.416c10.496-21.728 31.424-36.928 55.744-40.576l266.496-39.68-195.264-194.912z" />
<glyph unicode="&#xe905;" glyph-name="bulb" d="M512 960c-194.432 0-352-157.568-352-352 0-128.992 118.016-265.696 160.992-385.76 64.096-179.040 56.992-286.24 191.008-286.24 136 0 126.88 106.688 191.008 285.504 43.104 120.32 160.992 258.496 160.992 386.496 0 194.432-157.632 352-352 352zM594.944 90.368l-158.656-19.808c-5.664 16.384-11.744 35.552-19.136 60.576-0.096 0.32-0.224 0.672-0.288 0.992l198.016 24.736c-2.816-9.44-5.824-19.36-8.448-28.256-4.192-14.368-7.936-26.848-11.488-38.24zM407.552 162.944c-5.824 19.264-12.384 39.552-19.68 61.056h248.512c-3.936-11.488-7.872-23.008-11.264-33.888l-217.568-27.168zM512 0c-32.416 0-47.328 3.744-63.904 40l135.616 16.992c-19.648-52.928-33.952-56.992-71.712-56.992zM661.504 288h-298.656c-15.936 34.56-35.072 69.12-53.952 102.944-41.76 74.72-84.896 152-84.896 217.056 0 158.816 129.184 288 288 288s288-129.184 288-288c0-64.576-43.2-142.272-84.992-217.44-18.688-33.696-37.696-68.192-53.504-102.56zM512 800c8.8 0 16-7.168 16-16s-7.168-16-16-16c-88.224 0-160-71.776-160-160 0-8.832-7.168-16-16-16s-16 7.168-16 16c0 105.888 86.112 192 192 192z" />
<glyph unicode="&#xe906;" glyph-name="like" d="M933.248 624.896c-40 10.496-134.048 10.368-271.616 14.016 6.496 30.016 8 57.088 8 105.152 0 114.816-83.648 215.936-157.632 215.936-52.256 0-95.328-42.72-96-95.264-0.704-64.448-20.64-175.744-128-232.192-7.872-4.16-30.4-15.264-33.696-16.704l1.696-1.44c-16.8 14.496-40.096 25.6-64 25.6h-96c-52.928 0-96-43.072-96-96v-512c0-52.928 43.072-96 96-96h96c38.080 0 69.952 23.008 85.376 55.264 0.384-0.128 1.056-0.32 1.504-0.384 2.112-0.576 4.608-1.184 7.648-1.984 0.576-0.16 0.864-0.224 1.472-0.384 18.432-4.576 53.92-13.056 129.76-30.496 16.256-3.712 102.144-22.016 191.104-22.016h174.944c53.312 0 91.744 20.512 114.624 61.696 0.32 0.64 7.68 15.008 13.696 34.432 4.512 14.624 6.176 35.328 0.736 56.32 34.368 23.616 45.44 59.328 52.64 82.56 12.064 38.112 8.448 66.752 0.064 87.264 19.328 18.24 35.808 46.048 42.752 88.512 4.32 26.304-0.32 53.376-12.448 75.904 18.112 20.352 26.368 45.952 27.328 69.632l0.384 6.688c0.224 4.192 0.416 6.784 0.416 16 0 40.416-28 91.968-90.752 109.888zM224 32c0-17.696-14.304-32-32-32h-96c-17.696 0-32 14.304-32 32v512c0 17.696 14.304 32 32 32h96c17.696 0 32-14.304 32-32v-512zM959.264 494.88c-0.64-15.808-7.264-46.88-63.264-46.88-48 0-64 0-64 0-8.864 0-16-7.168-16-16s7.136-16 16-16c0 0 14.016 0 62.016 0s54.304-39.808 51.2-59.008c-3.968-23.872-15.168-68.992-69.216-68.992-53.984 0-76 0-76 0-8.864 0-16-7.136-16-16 0-8.8 7.136-16 16-16 0 0 38.016 0 63.008 0 54.016 0 49.248-41.184 41.504-65.76-10.208-32.288-16.448-62.24-84.512-62.24-23.008 0-52.192 0-52.192 0-8.864 0-16-7.136-16-16 0-8.8 7.136-16 16-16 0 0 22.176 0 50.176 0 35.008 0 36.64-33.12 32.992-44.992-4-12.992-8.736-22.624-8.928-23.072-9.664-17.44-25.248-27.936-58.24-27.936h-174.944c-87.872 0-175.040 19.936-177.28 20.448-132.928 30.624-139.936 32.992-148.288 35.36 0 0-27.072 4.576-27.072 28.192l-0.224 441.984c0 15.008 9.568 28.576 25.408 33.344 1.984 0.768 4.672 1.6 6.592 2.4 146.176 60.544 190.688 193.28 192 302.272 0.192 15.328 12 32 32 32 33.824 0 93.632-67.904 93.632-151.936 0-75.872-3.072-88.992-29.632-168.064 320 0 317.76-4.608 345.984-12 35.008-10.016 38.016-39.008 38.016-48.992 0-10.976-0.32-9.376-0.736-20.128zM144 128c-26.496 0-48-21.504-48-48s21.504-48 48-48 48 21.504 48 48-21.504 48-48 48zM144 64c-8.8 0-16 7.2-16 16s7.2 16 16 16 16-7.2 16-16-7.2-16-16-16z" />
<glyph unicode="&#xe907;" glyph-name="heart-outline" d="M512 85.334c-8.32 0-16.683 2.432-23.936 7.339-9.6 6.443-235.008 159.147-304.896 229.163-78.123 78.123-87.168 161.152-87.168 216.832 0 126.464 102.869 229.333 229.333 229.333 76.885 0 144.981-38.016 186.667-96.256 41.685 58.24 109.781 96.256 186.667 96.256 126.464 0 229.333-102.869 229.333-229.333 0-55.68-9.045-138.709-87.168-216.832-70.016-70.016-295.381-222.72-304.896-229.163-7.253-4.907-15.616-7.339-23.936-7.339zM325.333 682.667c-79.403 0-144-64.597-144-144 0-46.635 7.381-101.717 62.165-156.501 51.712-51.712 208.341-161.067 268.501-202.496 60.16 41.429 216.789 150.784 268.501 202.496 54.784 54.784 62.165 109.867 62.165 156.501 0 79.403-64.597 144-144 144s-144-64.597-144-144c0-23.552-19.072-42.667-42.667-42.667s-42.667 19.115-42.667 42.667c0 79.403-64.597 144-144 144z" />
<glyph unicode="&#xe908;" glyph-name="device-desktop" d="M896 896h-768c-70.571 0-128-57.429-128-128v-469.333c0-70.571 57.429-128 128-128h256v-85.333h-128c-23.552 0-42.667-19.115-42.667-42.667s19.115-42.667 42.667-42.667h512c23.552 0 42.667 19.115 42.667 42.667s-19.115 42.667-42.667 42.667h-128v85.333h256c70.571 0 128 57.429 128 128v469.333c0 70.571-57.429 128-128 128zM597.333 85.334h-170.667v85.333h170.667v-85.333zM938.667 298.667c0-23.509-19.157-42.667-42.667-42.667h-768c-23.509 0-42.667 19.157-42.667 42.667v469.333c0 23.509 19.157 42.667 42.667 42.667h768c23.509 0 42.667-19.157 42.667-42.667v-469.333zM853.333 768h-682.667c-23.467 0-42.667-19.2-42.667-42.667v-341.333c0-23.467 19.2-42.667 42.667-42.667h682.667c23.467 0 42.667 19.2 42.667 42.667v341.333c0 23.467-19.2 42.667-42.667 42.667zM853.333 384h-682.667v341.333h682.667v-341.333z" />
<glyph unicode="&#xe909;" glyph-name="skype" d="M952.64 369.056c4.544 25.664 7.36 51.936 7.36 78.944 0 247.424-200.576 448-448 448-27.008 0-53.28-2.816-78.944-7.36-45.984 44.096-108.32 71.36-177.056 71.36-141.376 0-256-114.624-256-256 0-68.736 27.264-131.072 71.36-177.056-4.544-25.664-7.36-51.936-7.36-78.944 0-247.424 200.576-448 448-448 27.008 0 53.28 2.784 78.944 7.36 45.984-44.096 108.32-71.36 177.056-71.36 141.376 0 256 114.624 256 256 0 68.736-27.264 131.072-71.36 177.056zM709.28 268.672c-17.728-24.128-43.84-43.264-77.728-56.768-33.568-13.408-73.76-20.224-119.456-20.224-54.944 0-100.992 9.312-136.928 27.616-25.696 13.376-46.88 31.392-62.976 53.856-16.256 22.528-24.48 44.896-24.48 66.528 0 13.472 5.344 25.12 15.936 34.72 10.464 9.536 23.904 14.272 39.904 14.272 13.152 0 24.512-3.744 33.696-11.264 8.8-7.264 16.352-17.888 22.432-31.552 6.784-14.976 14.144-27.552 21.952-37.44 7.52-9.632 18.304-17.664 32.096-23.936 13.856-6.304 32.576-9.536 55.552-9.536 31.584 0 57.536 6.496 77.024 19.328 19.040 12.512 28.288 27.552 28.288 45.984 0 14.528-4.832 25.984-14.752 34.912-10.432 9.376-24.16 16.672-40.768 21.696-17.408 5.184-41.024 10.912-70.208 16.736-39.68 8.192-73.376 17.888-100.224 28.832-27.424 11.264-49.536 26.848-65.696 46.272-16.416 19.84-24.736 44.608-24.736 73.824 0 27.808 8.736 52.896 25.984 74.496 17.088 21.504 42.080 38.208 74.24 49.632 31.712 11.328 69.472 17.024 112.192 17.024 34.112 0 64.192-3.808 89.248-11.328 25.216-7.52 46.432-17.76 63.2-30.304 16.768-12.672 29.312-26.144 37.152-40.256 7.904-14.144 11.968-28.32 11.968-41.984 0-13.184-5.28-25.12-15.68-35.552-10.496-10.464-23.68-15.776-39.296-15.776-14.144 0-25.248 3.328-32.928 9.856-7.168 6.112-14.592 15.616-22.816 29.28-9.568 17.44-21.088 31.2-34.336 40.896-12.8 9.44-34.304 14.144-63.84 14.144-27.392 0-49.728-5.28-66.24-15.744-15.968-10.048-23.712-21.6-23.712-35.296 0-8.416 2.496-15.392 7.648-21.408 5.408-6.464 13.088-12 22.784-16.704 10.016-4.832 20.416-8.704 30.784-11.456 10.624-2.848 28.448-7.040 52.896-12.48 30.944-6.432 59.392-13.6 84.544-21.344 25.504-7.872 47.424-17.504 65.44-28.768 18.304-11.456 32.8-26.176 43.136-43.808 10.304-17.696 15.52-39.488 15.52-64.832-0.064-30.24-9.024-58.016-26.816-82.144z" />
<glyph unicode="&#xe90a;" glyph-name="anchor" d="M222.208 171.008c62.276-62.413 144.637-104.761 236.562-116.524l2.030-0.212v406.528h-204.8v102.4h204.8v111.104c-60.168 21.723-102.4 78.337-102.4 144.815 0 84.831 68.769 153.6 153.6 153.6s153.6-68.769 153.6-153.6c0-66.478-42.232-123.092-101.33-144.477l-1.070-0.338v-111.104h204.8v-102.4h-204.8v-406.528c93.955 11.975 176.316 54.323 238.585 116.729l0.007 0.007-72.704 72.704h289.792l-144.896-144.896c-92.649-92.621-220.626-149.907-361.984-149.907s-269.336 57.286-361.986 149.908l-144.894 144.894h289.792l-72.704-72.704zM512 768c28.277 0 51.2 22.923 51.2 51.2s-22.923 51.2-51.2 51.2v0c-28.277 0-51.2-22.923-51.2-51.2s22.923-51.2 51.2-51.2v0z" />
<glyph unicode="&#xe90b;" glyph-name="bookmark-outline" d="M102.4 870.4c0 56.32 46.080 102.4 102.4 102.4h614.4c56.554 0 102.4-45.846 102.4-102.4v0-921.6l-409.6 204.8-409.6-204.8v921.6zM204.8 870.4v-768l307.2 153.6 307.2-153.6v768h-614.4z" />
<glyph unicode="&#xe90c;" glyph-name="google" d="M101.837 686.643c0-76.493 25.549-131.686 75.878-164.096 41.267-26.624 89.088-30.618 113.971-30.618 6.042 0 10.906 0.307 14.285 0.512 0 0-7.885-51.405 30.208-102.195h-1.741c-65.997 0-281.242-13.773-281.242-190.822 0-180.019 197.683-189.184 237.363-189.184 3.123 0 4.966 0.102 4.966 0.102 0.41 0 3.226-0.102 8.090-0.102 25.446 0 91.238 3.174 152.32 32.922 79.258 38.4 119.45 105.421 119.45 198.912 0 90.317-61.235 144.077-105.933 183.398-27.29 24.013-50.893 44.698-50.893 64.819 0 20.48 17.254 35.891 39.014 55.398 35.277 31.488 68.557 76.39 68.557 161.28 0 74.598-9.677 124.723-69.325 156.518 6.195 3.174 28.211 5.478 39.066 7.014 32.307 4.403 79.565 9.421 79.565 35.789v5.069h-235.469c-2.355-0.102-238.131-8.806-238.131-224.717zM481.946 225.178c4.506-71.987-57.088-125.082-149.606-131.789-93.952-6.912-171.264 35.379-175.77 107.315-2.202 34.611 13.005 68.403 42.752 95.386 30.157 27.29 71.578 44.186 116.634 47.514 5.325 0.307 10.598 0.614 15.872 0.614 86.989-0.051 145.869-51.149 150.118-119.040zM420.454 735.949c23.091-81.306-11.776-166.195-67.379-181.914-6.4-1.792-12.954-2.662-19.661-2.662-50.893 0-101.325 51.507-120.064 122.522-10.445 39.731-9.574 74.65 2.406 108.134 11.725 33.024 32.922 55.194 59.546 62.72 6.4 1.792 13.005 2.714 19.712 2.714 61.44 0 100.966-25.498 125.44-111.514zM819.2 563.2v153.6h-102.4v-153.6h-153.6v-102.4h153.6v-153.6h102.4v153.6h153.6v102.4h-153.6z" />
<glyph unicode="&#xe90d;" glyph-name="follow-me-on-soundcloud" d="M511.991 960c-282.762 0-511.991-229.23-511.991-512.005 0-282.766 229.229-511.996 511.991-511.996 282.77 0 512.009 229.229 512.009 511.996 0 282.775-229.239 512.005-512.009 512.005zM511.991-4.396c-249.449 0-452.391 202.945-452.391 452.391 0 249.455 202.951 452.391 452.391 452.391s452.385-202.936 452.385-452.391c0-249.455-202.945-452.391-452.385-452.391zM401.498 755.137c5.063-3.053 10.517-3.677 16.298-1.889 5.811 1.8 9.914 5.359 12.349 10.685 2.424 5.33 2.338 12.169-0.221 20.522-2.569 8.253-6.27 13.86-11.146 16.806-4.889 2.946-10.315 3.489-16.307 1.635-6.003-1.847-10.197-5.397-12.601-10.647-2.406-5.243-2.306-12.015 0.23-20.309 2.533-8.156 6.331-13.755 11.398-16.803zM254.355 679.507c-6.754 5.379-12.987 7.91-18.662 7.59-5.682-0.314-10.493-2.935-14.392-7.839-3.902-4.913-5.388-10.206-4.407-15.901 0.981-5.687 4.856-11.226 11.658-16.63 6.68-5.321 12.978-7.812 18.876-7.469 5.896 0.339 10.742 2.888 14.522 7.638 3.79 4.744 5.178 10.014 4.185 15.776s-4.925 11.391-11.781 16.835zM761.977 657.028c5.86 0.076 12.004 3.068 18.459 8.976 6.379 5.838 9.835 11.601 10.428 17.256 0.591 5.666-1.25 10.821-5.479 15.447-4.236 4.628-9.243 6.91-15.028 6.83-5.769-0.074-11.837-3.039-18.245-8.895-6.293-5.764-9.751-11.592-10.332-17.478-0.591-5.891 1.183-11.066 5.279-15.547 4.095-4.483 9.074-6.676 14.918-6.591zM511.991 658.817c91.66 0 169.63-58.524 198.658-140.232h236.763c-33.894 209.779-216.239 370.509-435.43 370.509-219.198 0-401.533-160.73-435.421-370.509h236.757c29.034 81.709 106.999 140.232 198.673 140.232zM829.95 662.94l7.307-12.888-28.613-51.685 43.832 24.828 6.97-12.311-65.625-37.172-7.534 13.298 27.825 50.695-42.799-24.241-6.97 12.3 65.607 37.176zM757.73 718.388c3.982 1.328 8.117 1.934 12.382 1.809 4.236-0.132 8.117-1 11.572-2.607 4.65-2.123 9.036-5.444 13.18-9.972 7.507-8.196 10.983-17.087 10.391-26.67-0.573-9.568-5.403-18.506-14.448-26.797-8.991-8.224-18.234-12.216-27.796-11.977-9.535 0.239-18.054 4.443-25.532 12.621-7.572 8.263-11.066 17.155-10.482 26.655 0.564 9.492 5.288 18.303 14.147 26.416 5.651 5.196 11.184 8.695 16.587 10.522zM731.878 762.648l-6.538-10.967-34.944 20.836-8.579-14.368 32.533-19.375-6.491-10.921-32.542 19.384-10.511-17.643 36.203-21.554-6.52-10.921-49.26 29.362 38.598 64.794 48.051-28.627zM593.713 823.886l21.719-6.937-2.611-53.165 28.538 44.895 21.775-6.946-22.958-71.846-13.472 4.298 18.054 56.56-32.314-52.008-13.967 4.452 3.841 61.102-18.054-56.551-13.472 4.298 22.92 71.849zM464.143 829.588l13.18-51.375 11.953 52.258 18.105 0.63 15.050-52.197 9.731 53.062 15.32 0.539-15.669-76.015-16.153-0.568-16.988 55.823-12.987-56.881-16.505-0.577-20.643 74.752 15.605 0.548zM372.862 786.321c0.512 4.185 1.723 8.158 3.65 11.959 1.93 3.801 4.387 6.914 7.318 9.37 3.899 3.28 8.793 5.829 14.64 7.647 10.62 3.28 20.144 2.609 28.562-2.001 8.398-4.617 14.41-12.795 18.036-24.524 3.597-11.631 3.251-21.71-1.038-30.229-4.294-8.534-11.748-14.43-22.319-17.702-10.705-3.307-20.239-2.672-28.595 1.907-8.341 4.588-14.279 12.61-17.835 24.085-2.275 7.333-3.073 13.833-2.42 19.489zM317.823 777.693l30.273-54.212 33.070 18.459 6.195-11.094-46.359-25.886-36.477 65.315 13.298 7.418zM225.604 563.431l-67.519 33.64 23.049 46.279 11.427-5.698-16.266-32.644 15.975-7.966 14.043 28.172 11.427-5.684-14.034-28.186 28.674-14.292-6.778-13.621zM272.17 638.836c-6.984-8.782-15.208-13.63-24.681-14.542-9.473-0.916-18.914 2.358-28.299 9.84-6.012 4.782-10.342 9.695-12.997 14.744-1.934 3.734-3.175 7.716-3.734 11.93-0.53 4.222-0.278 8.176 0.769 11.859 1.377 4.918 3.966 9.775 7.803 14.584 6.914 8.693 15.152 13.503 24.691 14.43 9.544 0.92 19.118-2.433 28.722-10.079 9.526-7.59 14.932-16.115 16.18-25.57 1.274-9.454-1.558-18.522-8.454-27.194zM249.643 727.421l11.732 9.7 39.543-47.877 29.197 24.125 8.093-9.793-40.934-33.823-47.63 57.668zM298.594 237.78c-4.588 5.129-10.032 7.683-16.355 7.683-6.317 0-13.024-3.157-20.121-9.488-6.975-6.228-10.821-12.577-11.554-19.012-0.709-6.444 1.136-12.155 5.56-17.097 4.434-4.969 9.849-7.431 16.266-7.422 6.408 0.009 13.189 3.204 20.338 9.582 7.059 6.293 10.954 12.559 11.658 18.749 0.718 6.199-1.214 11.863-5.793 17.004zM828.099 308.552c-0.789 2.273-2.658 4.659-5.635 7.14-2.979 2.478-7.393 4.987-13.265 7.467-5.88 2.509-10.624 3.897-14.194 4.198-3.607 0.301-6.671-0.112-9.225-1.221-2.565-1.108-4.753-2.986-6.614-5.58-1.391-1.934-3.42-6.050-6.068-12.296l-2.95-6.905 50.361-21.409 4.876 11.469c1.823 4.283 2.912 7.478 3.231 9.582 0.452 2.765 0.272 5.29-0.517 7.554zM502.917 136.456c-1.874 2.068-4.354 3.541-7.416 4.434-2.288 0.695-6.819 1.295-13.612 1.783l-7.463 0.546-3.951-54.59 12.414-0.891c4.65-0.339 8.028-0.321 10.123 0.054 2.752 0.481 5.078 1.448 6.975 2.941 1.892 1.484 3.538 4.031 4.933 7.638 1.395 3.616 2.32 8.605 2.781 14.994 0.464 6.35 0.254 11.291-0.615 14.785-0.896 3.478-2.271 6.248-4.169 8.305zM511.991 237.176c-91.665 0-169.639 58.524-198.662 140.252h-236.768c33.888-209.812 216.232-370.542 435.43-370.542 219.191 0 401.527 160.73 435.421 370.542h-236.763c-29.028-81.727-106.999-140.252-198.658-140.252zM218.215 244.908c-4.88 0.461-9.314 2.358-13.305 5.72-3.978 3.345-7.609 8.229-10.898 14.598-4.771 9.301-6.29 17.548-4.561 24.725 1.743 7.177 6.467 13.378 14.19 18.562l8.82-13.717c-4.396-3.354-7.041-6.952-7.957-10.765-0.903-3.822-0.201-8.004 2.117-12.512 2.46-4.773 5.317-7.853 8.601-9.245 3.258-1.391 6.242-1.391 8.956 0.009 1.738 0.893 2.959 2.17 3.656 3.806 0.689 1.635 0.845 3.982 0.441 6.981-0.287 2.048-1.259 6.565-2.908 13.526-2.113 8.971-2.554 15.79-1.342 20.489 1.738 6.594 5.499 11.384 11.318 14.354 3.743 1.934 7.792 2.669 12.151 2.217 4.339-0.45 8.398-2.235 12.16-5.344 3.748-3.119 7.077-7.487 9.98-13.151 4.744-9.225 6.284-17.209 4.641-23.945-1.649-6.745-5.791-11.95-12.42-15.671l-8.276 14.504c3.441 2.585 5.468 5.335 6.039 8.276 0.588 2.939-0.201 6.491-2.344 10.662-2.211 4.321-4.838 7.242-7.848 8.773-1.945 0.978-3.87 0.987-5.782 0-1.742-0.902-2.852-2.384-3.329-4.49-0.606-2.687 0.098-8.060 2.099-16.166 2.001-8.098 2.986-14.344 2.941-18.742-0.038-4.396-1.141-8.378-3.287-11.95-2.164-3.588-5.56-6.574-10.206-8.953-4.222-2.139-8.771-2.993-13.648-2.553zM245.523 190.32c-8.187 9.169-11.888 18.956-11.126 29.357 0.757 10.408 6.048 19.981 15.852 28.736 6.272 5.618 12.376 9.385 18.314 11.309 4.396 1.408 8.915 1.992 13.573 1.803 4.653-0.189 8.886-1.203 12.659-3.006 5.049-2.384 9.822-6.086 14.301-11.103 8.113-9.074 11.776-18.862 11.025-29.347-0.769-10.482-6.177-20.197-16.218-29.157-9.943-8.886-20.141-13.133-30.596-12.737-10.428 0.376-19.705 5.089-27.784 14.145zM353.291 128.884c-2.992-2.95-6.275-4.942-9.831-5.974-3.57-1.023-7.516-1.147-11.823-0.339-4.31 0.827-9.205 3.015-14.682 6.585-6.618 4.312-11.117 8.343-13.541 12.089-2.424 3.757-3.828 7.496-4.222 11.226-0.395 3.746-0.038 7.148 1.065 10.23 1.676 4.557 5.040 10.707 10.094 18.45l24.057 36.945 13.974-9.111-24.435-37.491c-3.864-5.956-6.213-9.92-7.012-11.903-1.259-3.231-1.315-6.435-0.183-9.611 1.136-3.184 3.65-6.048 7.554-8.585 3.964-2.594 7.482-3.739 10.564-3.42 3.077 0.319 5.58 1.502 7.52 3.607 1.954 2.084 4.717 5.88 8.285 11.367l24.95 38.288 13.978-9.111-23.693-36.354c-5.426-8.322-9.63-13.958-12.621-16.89zM412.632 86.406l-14.199 61.735-17.341-51.028-14.673 4.998 26.599 78.233 15.373-5.223 14.256-63.138 17.768 52.24 14.667-4.989-26.608-78.232-15.841 5.403zM524.855 111.356c-0.508-6.781-1.776-12.57-3.815-17.341-2.494-5.843-5.791-10.493-9.867-13.924-3.1-2.611-7.15-4.508-12.18-5.729-3.763-0.902-8.717-1.127-14.86-0.677l-31.316 2.255 5.974 82.422 30.409-2.199c6.867-0.515 12.053-1.408 15.574-2.723 4.72-1.776 8.675-4.602 11.868-8.494 3.186-3.87 5.486-8.528 6.906-13.922 1.419-5.39 1.85-11.937 1.306-19.669zM597.827 87.703c-4.904-5.335-11.705-8.811-20.424-10.41-10.803-1.972-20.337 0.105-28.642 6.21-8.294 6.115-13.612 15.547-15.941 28.342-2.48 13.526-0.902 24.669 4.717 33.433s14.129 14.194 25.496 16.26c9.956 1.823 18.561 0.357 25.852-4.387 4.321-2.799 8.013-7.28 11.046-13.443l-15.536-6.856c-1.727 4.040-4.339 7.006-7.833 8.886-3.496 1.878-7.422 2.424-11.79 1.633-6.019-1.107-10.52-4.171-13.479-9.169-2.961-5.016-3.552-12.362-1.785-22.036 1.879-10.277 5.054-17.267 9.562-20.95 4.481-3.69 9.686-4.998 15.594-3.906 4.358 0.789 7.872 2.874 10.502 6.208 2.631 3.336 4.096 8.126 4.378 14.308l16.833-2.143c-0.809-9.312-3.665-16.639-8.55-21.982zM630.048 91.808l-32.693 75.16 15.295 6.642 27.14-62.367 38.045 16.552 5.553-12.775-53.34-23.212zM745.922 171.758c-1.174-10.39-6.605-19.275-16.242-26.659-9.76-7.458-19.792-10.426-30.099-8.868-10.315 1.54-19.464 7.532-27.459 17.978-5.109 6.68-8.407 13.058-9.871 19.127-1.072 4.492-1.324 9.036-0.771 13.677 0.544 4.632 1.86 8.755 3.955 12.402 2.761 4.866 6.819 9.336 12.166 13.414 9.675 7.404 19.689 10.317 30.097 8.775 10.391-1.558 19.673-7.685 27.854-18.365 8.106-10.607 11.553-21.091 10.37-31.481zM762.708 319.533c2.687 6.34 5.225 10.963 7.599 13.856 3.213 3.908 7.168 6.727 11.865 8.494 4.706 1.756 9.845 2.433 15.415 2.008 5.571-0.385 11.903-2.103 19.041-5.138 6.246-2.64 11.329-5.72 15.181-9.205 4.724-4.256 8.058-8.878 9.976-13.856 1.457-3.768 1.963-8.211 1.484-13.368-0.366-3.841-1.767-8.594-4.173-14.268l-12.278-28.896-76.044 32.323 11.933 28.050zM785.742 238.156c-1.936 2.094-5.504 5.129-10.709 9.093l-36.317 27.751 10.127 13.265 34.494-26.341c7.873-6.012 13.182-10.635 15.887-13.847 2.696-3.213 4.443-6.614 5.214-10.248 0.76-3.636 0.581-7.581-0.546-11.828-1.147-4.227-3.701-8.96-7.667-14.147-4.791-6.275-9.149-10.484-13.066-12.607-3.917-2.143-7.768-3.269-11.509-3.382-3.757-0.122-7.121 0.49-10.118 1.841-4.423 2.003-10.315 5.805-17.65 11.424l-35.038 26.773 10.127 13.245 35.565-27.167c5.637-4.292 9.421-6.932 11.358-7.882 3.109-1.473 6.304-1.776 9.571-0.891 3.251 0.9 6.295 3.193 9.111 6.905 2.875 3.766 4.274 7.177 4.209 10.266-0.063 3.080-1.099 5.671-3.042 7.777zM703.772 206.11c-6.125 1.174-11.921-0.319-17.378-4.499-5.468-4.189-8.436-9.412-8.926-15.725-0.47-6.293 2.181-13.227 7.957-20.779 5.684-7.431 11.716-11.743 18.085-12.964 6.359-1.203 12.175 0.207 17.454 4.256 5.297 4.031 8.171 9.245 8.643 15.651 0.47 6.388-2.199 13.405-8.024 21.013-5.74 7.534-11.679 11.874-17.811 13.047zM831.377 407.151l16.928-16.928 16.91 16.928h23.936v23.934l16.926 16.91-16.926 16.931v23.927h-23.936l-16.91 16.928-16.928-16.928h-23.936v-23.927l-16.928-16.931 16.928-16.91v-23.934zM152.011 407.151l16.933-16.928 16.899 16.928h23.947v23.934l16.917 16.91-16.917 16.931v23.927h-23.947l-16.899 16.928-16.933-16.928h-23.93v-23.927l-16.926-16.931 16.926-16.91v-23.934zM364.793 487.505c-0.347 1.292-1.165 2.26-2.155 2.26-1 0-1.809-0.969-2.143-2.26 0-0.029 0-0.067-0.027-0.067-1.705-7.801-2.841-15.997-3.659-26.608-0.718-9.107-1.067-17.947-1.020-26.251-0.020-8.55 0.337-17.398 1.020-26.323 0.818-10.622 1.954-18.769 3.659-26.574 0 0 0.027-0.038 0.027-0.065 0.156-0.6 0.423-1.099 0.747-1.475 0.089-0.103 0.116-0.14 0.225-0.216 0.325-0.376 0.747-0.564 1.17-0.564 0.446 0 0.851 0.227 1.194 0.564 0.098 0.085 0.165 0.122 0.234 0.216 0.325 0.376 0.555 0.874 0.718 1.475 0 0.029 0.029 0.065 0.038 0.065 1.696 7.806 2.85 15.952 3.668 26.574 0.68 8.906 1.038 17.773 1.010 26.274 0.029 8.352-0.301 17.193-1 26.298-0.827 10.611-1.983 18.807-3.686 26.608 0.016 0.004-0.022 0.042-0.022 0.069zM413.392 525.156c-0.432 1.827-1.578 3.175-2.982 3.175-1.375 0-2.551-1.368-2.973-3.175 0-0.038-0.038-0.067-0.085-0.118-2.357-10.858-3.928-22.296-5.101-37.119-0.981-12.715-1.451-25.050-1.413-36.698-0.009-11.906 0.459-24.241 1.433-36.755 1.156-14.767 2.725-26.236 5.081-37.078 0-0.038 0.085-0.076 0.085-0.142 0.201-0.825 0.539-1.493 1-2.048 0.085-0.14 0.183-0.18 0.278-0.339 0.484-0.45 1.029-0.789 1.685-0.789 0.606 0 1.185 0.339 1.655 0.789 0.136 0.16 0.212 0.198 0.328 0.339 0.423 0.555 0.78 1.223 1.001 2.048 0 0.065 0.074 0.105 0.074 0.142 2.358 10.841 3.893 22.301 5.087 37.078 0.963 12.512 1.446 24.847 1.446 36.717 0.018 11.685-0.446 24.019-1.437 36.706-1.152 14.843-2.739 26.278-5.098 37.139 0.002 0.063-0.063 0.091-0.063 0.129zM440.967 544.395c-0.488 2.066-1.798 3.57-3.354 3.57-1.549 0-2.859-1.504-3.349-3.57 0-0.047-0.047-0.085-0.047-0.165-2.696-12.178-4.466-25.068-5.773-41.747-1.127-14.283-1.635-28.166-1.596-41.266-0.029-13.392 0.517-27.256 1.606-41.328 1.306-16.627 3.059-29.534 5.764-41.727 0-0.038 0.047-0.067 0.047-0.142 0.239-0.949 0.635-1.702 1.136-2.293 0.112-0.196 0.212-0.234 0.352-0.365 0.53-0.546 1.165-0.932 1.86-0.932 0.709 0 1.353 0.386 1.903 0.932 0.116 0.131 0.201 0.169 0.31 0.365 0.508 0.591 0.902 1.342 1.15 2.293 0 0.074 0.042 0.103 0.042 0.142 2.663 12.193 4.443 25.101 5.758 41.727 1.090 14.072 1.606 27.9 1.606 41.263 0.062 13.156-0.479 27.051-1.596 41.314-1.277 16.726-3.066 29.6-5.767 41.765 0.022 0.047-0.049 0.109-0.049 0.165zM322.182 452.561c-0.136 0.526-0.475 0.963-0.898 0.963-0.405 0-0.751-0.437-0.893-0.963l-0.009-0.042c-0.715-3.265-1.183-6.665-1.54-11.11-0.292-3.841-0.443-7.521-0.443-10.997 0-3.59 0.151-7.271 0.443-11.048 0.357-4.443 0.827-7.853 1.508-11.104l0.033-0.038c0.056-0.243 0.16-0.47 0.314-0.6 0-0.038 0.038-0.074 0.080-0.112 0.151-0.149 0.296-0.254 0.479-0.254s0.385 0.112 0.49 0.254c0.042 0.038 0.071 0.076 0.109 0.112 0.136 0.142 0.23 0.357 0.287 0.6l0.009 0.038c0.733 3.271 1.174 6.662 1.531 11.104 0.278 3.777 0.452 7.442 0.423 11.008 0.029 3.516-0.147 7.215-0.423 11.048-0.287 4.443-0.78 7.853-1.488 11.113l-0.011 0.027zM541.85 589.941c-33.152 0-62.334-16.774-79.634-42.286v-173.552c1.395 0 2.79 0 4.203 0 78.237 0 183.412 0 188.427 0 13.218 0 19.841 7.919 19.841 7.919 17.643 15.687 28.792 38.523 28.792 63.963 0 42.916-31.535 78.373-72.755 84.634-14.504 34.833-48.811 59.323-88.875 59.323zM343.159 472.377c-0.221 0.949-0.836 1.635-1.498 1.635-0.733 0-1.301-0.686-1.549-1.635 0-0.029 0-0.029 0-0.071-1.221-5.519-2.028-11.398-2.634-18.965-0.493-6.491-0.753-12.804-0.733-18.76 0-6.086 0.239-12.402 0.733-18.769 0.606-7.592 1.404-13.434 2.607-18.967 0-0.029 0.038-0.065 0.038-0.065 0.109-0.414 0.278-0.789 0.512-1.061 0.065-0.076 0.103-0.103 0.142-0.18 0.263-0.254 0.53-0.376 0.86-0.376 0.305 0 0.606 0.14 0.865 0.376 0.047 0.076 0.094 0.103 0.145 0.18 0.212 0.272 0.395 0.61 0.508 1.061 0 0 0.038 0.038 0.038 0.065 1.174 5.513 1.983 11.377 2.607 18.967 0.475 6.388 0.751 12.681 0.722 18.74 0.029 5.985-0.21 12.296-0.713 18.787-0.582 7.567-1.381 13.437-2.583 18.965-0.038 0.044-0.065 0.044-0.065 0.073zM388.217 494.25c-0.357 1.451-1.259 2.551-2.367 2.551-1.114 0-2.001-1.098-2.377-2.551 0-0.038-0.018-0.071-0.018-0.098-1.921-8.619-3.184-17.744-4.096-29.52-0.76-10.112-1.147-19.943-1.147-29.186 0-9.47 0.385-19.286 1.165-29.215 0.925-11.761 2.175-20.91 4.078-29.516 0-0.020 0.018-0.056 0.018-0.094 0.154-0.657 0.446-1.183 0.798-1.616 0.080-0.112 0.147-0.189 0.254-0.263 0.376-0.376 0.827-0.631 1.324-0.631 0.484 0 0.934 0.256 1.33 0.631 0.103 0.083 0.192 0.16 0.249 0.263 0.357 0.432 0.644 0.958 0.789 1.616 0 0.038 0.038 0.074 0.038 0.094 1.907 8.634 3.119 17.782 4.073 29.516 0.757 9.931 1.159 19.747 1.132 29.177 0.027 9.281-0.343 19.112-1.132 29.224-0.916 11.776-2.166 20.91-4.073 29.52 0 0.027-0.038 0.062-0.038 0.098z" />
<glyph unicode="&#xe90e;" glyph-name="arrow-up-thick" d="M512 803.328l-273.664-273.664c-33.323-33.323-33.323-87.339 0-120.661s87.339-33.323 120.661 0l67.669 67.669v-308.992c0-47.104 38.187-85.333 85.333-85.333 47.104 0 85.333 38.229 85.333 85.333v308.992l67.669-67.669c16.683-16.683 38.485-25.003 60.331-25.003s43.648 8.32 60.331 25.003c33.323 33.323 33.323 87.339 0 120.661l-273.664 273.664z" />
<glyph unicode="&#xe90f;" glyph-name="anthor-2" d="M875.355 389.203l-83.241 126.514c-3.76 5.787-10.193 9.56-17.507 9.56s-13.747-3.773-17.458-9.479l-0.049-0.081-83.241-126.514c-1.859-3.284-2.955-7.212-2.955-11.396s1.096-8.112 3.016-11.513l-0.061 0.117c3.571-6.767 10.476-11.348 18.47-11.561l0.029-0.001h41.29c-25.333-78.318-89.72-137.223-169.61-154.322l-1.497-0.269v484.914h66.065c18.243 0 33.032 14.789 33.032 33.032s-14.789 33.032-33.032 33.032v0h-33.032c23.632 22.070 38.362 53.414 38.362 88.198 0 66.371-53.629 120.216-119.918 120.566h-0.033c-65.614-1.262-118.321-54.749-118.321-120.547 0-34.794 14.738-66.145 38.313-88.152l0.070-0.065h-33.032c-18.243 0-33.032-14.789-33.032-33.032s14.789-33.032 33.032-33.032v0h62.761v-484.914c-80.301 18.223-143.576 76.897-168.016 152.975l-0.448 1.616h40.63c0.098-0.002 0.213-0.003 0.329-0.003 7.839 0 14.697 4.201 18.445 10.475l0.054 0.098c1.859 3.284 2.955 7.212 2.955 11.396s-1.096 8.112-3.016 11.513l0.061-0.117-84.232 127.505c-3.76 5.787-10.193 9.56-17.507 9.56s-13.747-3.773-17.458-9.479l-0.049-0.081-83.241-126.514c-1.859-3.284-2.955-7.212-2.955-11.396s1.096-8.112 3.016-11.513l-0.061 0.117c3.677-6.812 10.699-11.4 18.806-11.561h43.625c23.606-126.030 108.455-228.035 221.841-275.246l2.448-0.904-8.258-10.57c-2.541-3.59-4.061-8.059-4.061-12.883s1.521-9.293 4.109-12.953l-0.047 0.070 66.065-102.73c3.812-5.925 10.373-9.794 17.837-9.794s14.025 3.869 17.787 9.71l0.050 0.084 66.065 102.73c2.632 3.56 4.213 8.037 4.213 12.883s-1.581 9.322-4.255 12.942l0.042-0.060-7.928 10.57c115.834 48.114 200.683 150.119 223.931 273.854l0.359 2.296h44.924c6.678 1.002 12.265 4.956 15.47 10.468l0.055 0.103c2.137 3.376 3.406 7.486 3.406 11.892s-1.269 8.516-3.461 11.984l0.055-0.092zM496.475 771.386c-0.391-0.010-0.851-0.016-1.312-0.016-30.649 0-55.494 24.846-55.494 55.494s24.846 55.494 55.494 55.494c30.295 0 54.92-24.275 55.484-54.435l0.001-0.053c0.016-0.493 0.025-1.073 0.025-1.655 0-30.060-24.189-54.471-54.164-54.83h-0.034z" />
<glyph unicode="&#xe910;" glyph-name="book-2" d="M404.315 666.674l208.764-100.748c0.941-0.449 2.045-0.711 3.21-0.711 2.884 0 5.393 1.607 6.68 3.975l0.020 0.040c0.436 0.905 0.69 1.969 0.69 3.091 0 2.82-1.606 5.264-3.953 6.469l-0.041 0.019-208.764 100.418h-3.634c-0.002 0-0.005 0-0.008 0-3.831 0-6.937-3.106-6.937-6.937 0-0.116 0.003-0.232 0.009-0.346l-0.001 0.016c0.295-2.386 1.825-4.355 3.921-5.269l0.043-0.017zM66.065 586.075l74.323-35.345c0.949-0.434 2.059-0.687 3.229-0.687 2.794 0 5.25 1.445 6.662 3.629l0.019 0.031c0.449 0.941 0.711 2.045 0.711 3.21 0 2.884-1.607 5.393-3.975 6.68l-0.040 0.020-60.119 28.738 144.351 69.037c2.442 1.11 4.109 3.527 4.109 6.334 0 1.187-0.298 2.305-0.824 3.282l0.018-0.037c-1.067 2.543-3.536 4.297-6.415 4.297-0.067 0-0.135-0.001-0.201-0.003h0.010c-0.495 0.14-1.064 0.221-1.652 0.221s-1.156-0.081-1.696-0.232l0.044 0.011-158.555-76.305c-2.342-1.324-3.897-3.798-3.897-6.635 0-1.063 0.218-2.075 0.613-2.994l-0.019 0.049c0.758-1.415 1.888-2.545 3.261-3.282l0.042-0.021zM507.706 718.204l208.764-100.748c0.949-0.434 2.059-0.687 3.229-0.687 2.794 0 5.25 1.445 6.662 3.629l0.019 0.031c0.493 0.979 0.781 2.134 0.781 3.356 0 2.779-1.492 5.21-3.719 6.534l-0.035 0.019-208.764 99.097c-0.544 0.162-1.17 0.255-1.817 0.255s-1.272-0.093-1.863-0.266l0.047 0.012c-0.002 0-0.005 0-0.008 0-3.831 0-6.937-3.106-6.937-6.937 0-0.116 0.003-0.232 0.009-0.346l-0.001 0.016c0.55-2.462 2.292-4.422 4.574-5.269l0.050-0.016zM612.088 768.413l208.764-99.097c1.007-0.561 2.209-0.892 3.488-0.892 2.769 0 5.176 1.548 6.402 3.826l0.019 0.039c0.158 0.552 0.249 1.186 0.249 1.841 0 2.013-0.857 3.825-2.226 5.092l-0.005 0.004-209.094 99.097c-0.546 0.14-1.172 0.22-1.817 0.22s-1.271-0.080-1.869-0.232l0.052 0.011c-3.983-0.34-7.109-3.58-7.267-7.582v-0.015c0.989-1.649 2.469-2.916 4.236-3.613l0.058-0.020zM437.017 78.369c1.144-0.638 2.51-1.014 3.964-1.014s2.82 0.376 4.006 1.035l-0.042-0.022 177.714 86.875c2.9 1.42 4.862 4.35 4.862 7.738 0 1.393-0.332 2.709-0.921 3.873l0.023-0.049c-1.483 2.942-4.47 4.93-7.924 4.955h-0.003c-0.595 0.16-1.278 0.252-1.982 0.252s-1.387-0.092-2.037-0.264l0.055 0.012-173.75-84.893-155.912 76.965c-1.49 1.159-3.388 1.858-5.449 1.858-4.926 0-8.919-3.993-8.919-8.919 0-3.921 2.53-7.251 6.047-8.446l0.063-0.019zM25.435 559.649l281.765-136.093c1.043-0.225 2.24-0.354 3.468-0.354s2.426 0.129 3.581 0.374l-0.112-0.020 280.444 3.634c0.894-0.148 1.923-0.232 2.973-0.232s2.079 0.084 3.083 0.247l-0.11-0.015 396.387 191.257c13.903 5.27 23.908 17.816 25.421 32.867l0.013 0.165c-1.446 15.247-11.484 27.829-25.166 32.944l-0.269 0.088-373.925 182.338c-13.985 6.674-30.395 10.571-47.716 10.571-0.18 0-0.36 0-0.539-0.001h0.028c-0.281 0.003-0.614 0.004-0.947 0.004-17.172 0-33.434-3.9-47.947-10.863l0.667 0.288-501.099-241.466c-13.951-5.203-23.988-17.785-25.423-32.875l-0.012-0.157c1.491-15.144 11.527-27.614 25.167-32.616l0.268-0.086zM357.409 451.634l91.83 44.263 85.554-41.29zM38.648 599.618l500.769 241.796c9.496 4.008 20.536 6.338 32.12 6.338 1.134 0 2.263-0.022 3.386-0.067l-0.161 0.005c0.907 0.035 1.971 0.055 3.040 0.055 11.533 0 22.523-2.327 32.526-6.537l-0.552 0.206 375.907-181.347c8.588-4.294 8.919-7.267 8.919-7.267s0-2.973-8.919-7.267l-391.102-187.954-139.726 66.065c-1.040 0.287-2.235 0.452-3.468 0.452s-2.428-0.165-3.563-0.474l0.095 0.022c-0.892 0.247-1.916 0.389-2.973 0.389s-2.081-0.142-3.054-0.408l0.081 0.019-139.726-66.065-264.258 127.505c-8.258 4.294-8.588 7.597-8.588 7.267s0.33 3.303 9.249 7.267zM1003.52 320.826c-0.025 0-0.054 0-0.083 0-2.874 0-5.577-0.734-7.931-2.025l0.086 0.043-552.299-262.276-417.197 204.8c-2.443 1.305-5.344 2.071-8.424 2.071-6.658 0-12.48-3.582-15.643-8.924l-0.046-0.084c-1.27-2.364-2.016-5.173-2.016-8.157 0-6.79 3.865-12.677 9.515-15.581l0.098-0.046 425.125-208.764c2.259-1.169 4.931-1.854 7.763-1.854s5.504 0.685 7.859 1.899l-0.096-0.045 561.548 266.24c6.094 2.728 10.263 8.739 10.263 15.724 0 2.689-0.618 5.234-1.72 7.501l0.045-0.102c-3.125 5.756-9.124 9.598-16.020 9.598-0.291 0-0.58-0.007-0.867-0.020l0.041 0.002zM1003.52 494.245c-0.025 0-0.054 0-0.083 0-2.874 0-5.577-0.734-7.931-2.025l0.086 0.043-552.299-262.276-417.197 204.8c-2.398 1.314-5.254 2.087-8.29 2.087-6.687 0-12.499-3.749-15.447-9.26l-0.046-0.094c-1.336-2.359-2.123-5.181-2.123-8.188 0-6.717 3.931-12.516 9.619-15.222l0.102-0.044 425.125-208.764c2.259-1.169 4.931-1.854 7.763-1.854s5.504 0.685 7.859 1.899l-0.096-0.045 561.548 266.24c6.094 2.728 10.263 8.739 10.263 15.724 0 2.689-0.618 5.234-1.72 7.501l0.045-0.102c-3.122 5.766-9.126 9.616-16.029 9.616-0.404 0-0.805-0.013-1.202-0.039l0.054 0.003zM618.694 355.179c-0.595 0.16-1.278 0.252-1.982 0.252s-1.387-0.092-2.037-0.264l0.055 0.012-173.75-84.893-155.912 76.965c-1.115 0.514-2.42 0.814-3.795 0.814-3.467 0-6.489-1.908-8.073-4.732l-0.024-0.047c-0.566-1.115-0.898-2.43-0.898-3.823 0-3.388 1.962-6.318 4.811-7.715l0.051-0.022 159.876-79.938c1.144-0.638 2.51-1.014 3.964-1.014s2.82 0.376 4.006 1.035l-0.042-0.022 177.714 86.875c3.124 1.332 5.273 4.376 5.273 7.923 0 0.825-0.116 1.623-0.333 2.378l0.015-0.061c-1.16 3.671-4.535 6.285-8.521 6.285-0.14 0-0.279-0.003-0.417-0.010l0.020 0.001z" />
<glyph unicode="&#xe911;" glyph-name="f-2" d="M668.672 806.4h99.328v153.6h-153.6c-198.656-6.656-251.904-102.4-256-204.8v0-153.6h-102.4v-153.6h153.6v-512h204.8v512h116.224l27.648 153.6h-143.872v144.896c-0.097 1.231-0.152 2.666-0.152 4.113 0 30.335 24.203 55.017 54.352 55.789l0.072 0.001z" />
<glyph unicode="&#xe912;" glyph-name="g-2" d="M369.664 345.6v3.072h-21.504c-4.719 0.327-10.228 0.514-15.781 0.514-14.686 0-29.067-1.304-43.034-3.804l1.471 0.218h24.576zM633.344 908.8h-284.672c-134.656 0-261.632-93.696-261.632-212.48-0.003-0.447-0.005-0.975-0.005-1.504 0-118.481 96.047-214.528 214.528-214.528 5.046 0 10.051 0.174 15.010 0.517l-0.669-0.037c9.728 0 18.944 0 28.16 3.072-9.304-15.875-14.956-34.884-15.358-55.18l-0.002-0.116c1.629-31.873 16.093-60.078 38.282-79.769l0.118-0.103c18.957-1.722 36.362-5.161 53.067-10.213l-1.867 0.485c59.904-41.984 92.672-66.048 102.4-113.664 2.28-8.564 3.59-18.396 3.59-28.534 0-0.408-0.002-0.816-0.006-1.224l0.001 0.062c0-84.992-43.52-128-199.168-128-110.592 0-190.464 47.616-190.464 132.096 0 69.12 68.608 127.488 153.6 144.896-152.576-8.192-288.256-93.696-288.256-197.632s162.304-168.448 327.168-168.448c188.416 0 285.184 83.968 285.184 192 0.592 5.841 0.929 12.624 0.929 19.486 0 73.481-38.698 137.923-96.827 174.058l-0.87 0.504c-27.136 18.944-78.336 65.536-78.336 92.672s9.216 47.616 56.832 85.504c47.537 33.172 78.372 87.431 78.848 148.918v0.074c0 75.264-28.16 165.888-90.624 165.888h86.528zM355.328 540.672c-74.24 0-144.896 83.456-157.696 181.76s36.864 173.056 109.568 170.496 146.432-80.896 159.232-178.688-36.864-175.616-111.104-173.568zM921.6 755.2v153.6h-102.4v-153.6h-102.4v-102.4h102.4v-102.4h102.4v102.4h102.4v102.4z" />
<glyph unicode="&#xe913;" glyph-name="in-2" d="M30.72-10.85h195.048v585.143h-195.048zM762.149 618.667c-1.875 0.058-4.082 0.091-6.295 0.091-78.352 0-147.092-41.158-185.778-103.033l-0.536-0.92v59.49h-243.81v-585.143h195.048v330.118c0 69.73 35.596 137.509 115.078 137.509 71.426-1.319 128.823-59.531 128.823-131.149 0-1.722-0.033-3.437-0.099-5.143l0.008 0.246v-331.581h243.81v345.234c-2.438 239.909-161.89 284.282-248.686 284.282zM118.979 886.857c-1.652 0.086-3.587 0.135-5.533 0.135-60.566 0-110.062-47.39-113.432-107.113l-0.013-0.298c3.383-60.021 52.88-107.411 113.446-107.411 1.946 0 3.881 0.049 5.803 0.146l-0.27-0.011c1.506-0.071 3.272-0.112 5.047-0.112 60.558 0 110.049 47.378 113.431 107.089l0.014 0.299c-3.395 60.011-52.887 107.388-113.444 107.388-1.775 0-3.541-0.041-5.296-0.121l0.249 0.009z" />
<glyph unicode="&#xe914;" glyph-name="left-1" d="M388.608 448l403.456 403.456c6.035 6.073 9.878 14.332 10.238 23.485l0.002 0.067c-0.134 9.263-4.032 17.59-10.229 23.541l-51.211 51.211c-5.901 6.295-14.269 10.216-23.552 10.216s-17.651-3.922-23.536-10.199l-0.016-0.018-478.72-478.208c-6.295-5.901-10.216-14.269-10.216-23.552s3.922-17.651 10.199-23.536l0.018-0.016 478.208-478.208c5.901-6.295 14.269-10.216 23.552-10.216s17.651 3.922 23.536 10.199l0.016 0.018 51.2 51.2c6.295 5.901 10.216 14.269 10.216 23.552s-3.922 17.651-10.199 23.536l-0.018 0.016z" />
<glyph unicode="&#xe915;" glyph-name="photo-1" d="M886.784 734.72h-108.544l-100.352 148.685c-5.679 8.95-15.43 14.874-26.583 15.154l-0.041 0.001h-294.912c-11.909-0.195-22.359-6.271-28.593-15.442l-0.079-0.123-101.581-148.275h-95.027c-72.587-0.923-131.075-59.982-131.075-132.7 0-0.292 0.001-0.583 0.003-0.874v0.045-462.029c-0.004-0.376-0.006-0.821-0.006-1.267 0-76.442 61.050-138.625 137.052-140.451l0.17-0.003h749.568c76.172 1.83 137.222 64.013 137.222 140.455 0 0.445-0.002 0.89-0.006 1.335v-0.068 455.066c0.002 0.25 0.003 0.545 0.003 0.841 0 76.276-61.142 138.272-137.089 139.65l-0.129 0.002zM886.784 79.36h-749.568c-38.093-13.517-96.256 58.163-96.256 58.163v447.693c-0.001 0.122-0.001 0.266-0.001 0.411 0 36.956 29.843 66.942 66.744 67.173h111.433c10.969 0.064 20.654 5.508 26.556 13.825l0.068 0.102 101.99 149.914h281.395l98.304-149.094c5.903-8.639 15.557-14.339 26.564-14.744l0.060-0.002h120.832c37.2-0.46 67.179-30.723 67.179-67.989 0-0.29-0.002-0.579-0.005-0.868v0.044-422.707h14.336c0-62.259-31.539-95.437-69.632-81.92zM514.867 644.198c-0.853 0.011-1.859 0.017-2.867 0.017-133.694 0-242.074-108.38-242.074-242.074s108.38-242.074 242.074-242.074c133.688 0 242.064 108.37 242.074 242.056v0.001c0.004 0.488 0.006 1.064 0.006 1.642 0 132.359-106.95 239.738-239.146 240.432h-0.066zM514.867 228.454c-0.609-0.008-1.328-0.012-2.048-0.012-95.916 0-173.67 77.755-173.67 173.67s77.755 173.67 173.67 173.67c95.911 0 173.663-77.748 173.67-173.658v-0.001c0.001-0.245 0.002-0.534 0.002-0.824 0-95.032-76.69-172.151-171.558-172.846h-0.066zM834.765 556.134c-7.061-0.228-12.698-6.006-12.698-13.101 0-0.002 0-0.005 0-0.007v0c-0.13-0.694-0.205-1.492-0.205-2.308 0-7.239 5.868-13.107 13.107-13.107s13.107 5.868 13.107 13.107c0 0.816-0.075 1.614-0.217 2.389l0.012-0.081c0.037 0.368 0.058 0.796 0.058 1.229 0 7.239-5.868 13.107-13.107 13.107-0.020 0-0.041 0-0.061 0h0.003zM834.765 590.131c-0.243 0.004-0.53 0.007-0.817 0.007-26.241 0-47.514-21.273-47.514-47.514s21.273-47.514 47.514-47.514c26.241 0 47.514 21.273 47.514 47.514 0 0.142-0.001 0.283-0.002 0.424v-0.022c0.018 0.488 0.029 1.062 0.029 1.638 0 25.789-20.906 46.694-46.694 46.694-0.010 0-0.020 0-0.030 0h0.002zM834.765 521.728c-8.992 2.629-15.449 10.8-15.449 20.48s6.457 17.851 15.298 20.442l0.151 0.038c8.992-2.629 15.449-10.8 15.449-20.48s-6.457-17.851-15.298-20.442l-0.151-0.038z" />
<glyph unicode="&#xe916;" glyph-name="skype-1" horiz-adv-x="1019" d="M944.6 378.589c3.567 20.778 5.615 44.72 5.635 69.137v0.018c-1.116 245.287-200.216 443.699-445.659 443.699-3.064 0-6.12-0.031-9.169-0.092l0.456 0.007c-24.544-0.369-48.286-2.405-71.512-6l2.87 0.366c-44.051 42.098-102.444 69.518-167.138 74.226l-0.882 0.052c-143.664-0.073-260.098-116.552-260.098-260.226 0-58.922 19.583-113.27 52.595-156.89l-0.473 0.652c-6.332-28.859-9.96-62.008-9.96-96.005 0-253.334 201.421-459.624 452.853-467.459l0.72-0.018c5.135-0.215 11.16-0.338 17.213-0.338 27.595 0 54.595 2.546 80.778 7.416l-2.711-0.419c41.54-32.362 94.466-51.887 151.953-51.887 6.375 0 12.694 0.24 18.948 0.712l-0.832-0.050c143.192 0.694 259.004 116.934 259.004 260.223 0 71.047-28.472 135.444-74.628 182.403l0.036-0.037zM707.938 237.207c-19.732-26.759-46.317-47.408-77.189-59.524l-1.187-0.41c-34.106-13.671-73.643-21.601-115.031-21.601-2.601 0-5.195 0.031-7.781 0.094l0.383-0.007c-3.417-0.143-7.427-0.224-11.455-0.224-46.934 0-91.286 11.054-130.595 30.701l1.692-0.766c-26.127 13.902-47.652 33.296-63.641 56.764l-0.392 0.609c-14.237 19.151-23.128 43.029-24.070 68.935l-0.006 0.22c-0.007 0.294-0.011 0.639-0.011 0.986 0 12.801 5.524 24.311 14.317 32.278l0.037 0.033c9.202 8.894 21.752 14.375 35.582 14.375 0.637 0 1.272-0.012 1.904-0.035l-0.091 0.003c0.531 0.023 1.154 0.036 1.781 0.036 11.349 0 21.696-4.291 29.506-11.34l-0.039 0.034c9.602-8.691 17.119-19.501 21.834-31.705l0.193-0.567c7.459-16.219 16.186-30.196 26.427-42.904l-0.302 0.387c9.484-11.97 21.494-21.518 35.261-27.925l0.597-0.249c16.274-6.867 35.195-10.858 55.047-10.858 1.899 0 3.789 0.036 5.67 0.109l-0.271-0.008c2.15-0.115 4.666-0.18 7.199-0.18 28.487 0 55.042 8.275 77.39 22.553l-0.579-0.346c19.543 11.315 32.538 32.031 32.784 55.801v0.035c0.013 0.459 0.021 1 0.021 1.542 0 16.087-6.681 30.615-17.42 40.958l-0.018 0.017c-12.394 11.447-27.53 20.117-44.302 24.911l-0.777 0.19c-20.18 5.791-46.129 11.498-72.546 15.814l-4.293 0.579c-39.455 8.455-73.712 19.217-106.541 32.739l4.089-1.491c-26.628 11.668-48.839 29.114-65.802 50.853l-0.28 0.372c-15.385 19.893-24.662 45.191-24.662 72.655 0 1.471 0.027 2.936 0.079 4.394l-0.006-0.211c-0.005 0.41-0.008 0.894-0.008 1.379 0 28.938 9.834 55.578 26.342 76.763l-0.209-0.279c19.26 23.424 44.615 41.175 73.651 50.895l1.139 0.331c33.151 12.018 71.413 18.966 111.298 18.966 1.032 0 2.063-0.005 3.094-0.014l-0.158 0.001c1.484 0.025 3.234 0.039 4.988 0.039 30.684 0 60.36-4.316 88.453-12.375l-2.259 0.555c24.475-7.454 45.771-18.472 64.55-32.647l-0.518 0.375c15.132-11.37 27.632-25.34 37.038-41.348l0.357-0.657c7.008-12.409 11.319-27.168 11.779-42.893l0.003-0.137c-0.344-13.62-5.953-25.867-14.858-34.836l0.003 0.003c-8.818-9.473-21.359-15.38-35.279-15.38-0.384 0-0.766 0.004-1.148 0.013l0.057-0.001c-0.882-0.060-1.911-0.094-2.948-0.094-10.486 0-20.154 3.501-27.9 9.398l0.113-0.083c-8.624 8.766-16.106 18.696-22.179 29.524l-0.36 0.7c-8.957 18.677-21.608 34.28-37.111 46.402l-0.283 0.213c-17.486 10.844-38.698 17.271-61.411 17.271-3.266 0-6.502-0.133-9.701-0.394l0.42 0.028c-1.995 0.11-4.329 0.172-6.678 0.172-24.373 0-47.174-6.728-66.648-18.428l0.586 0.327c-16.154-8.489-27.107-24.931-27.66-43.98l-0.002-0.074c0-0.066-0.001-0.145-0.001-0.223 0-10.437 3.672-20.017 9.795-27.517l-0.062 0.078c7.003-8.239 15.52-14.955 25.153-19.77l0.459-0.208c9.255-4.587 20.294-8.94 31.722-12.397l1.574-0.409 55.836-13.831c32.272-7.172 61.471-14.855 88.108-23.052 25.414-8.229 47.453-18.649 67.834-31.463l-1.241 0.728c17.989-11.652 32.525-27.171 42.697-45.453l0.332-0.65c10.056-18.075 15.976-39.646 15.976-62.599 0-1.765-0.035-3.522-0.104-5.27l0.008 0.251c0.004-0.428 0.007-0.933 0.007-1.439 0-31.923-10.175-61.47-27.458-85.574l0.301 0.442z" />
<glyph unicode="&#xe917;" glyph-name="tv-1" d="M568.889 153.316c-6.827 0-12.895-4.551-7.964-10.619 20.48 6.068 14.412 10.619 7.964 10.619zM782.033 68.741h-213.144v67.887c-3.333 1.701-6.203 3.723-8.746 6.089l0.023-0.021c-7.682-2.157-17.552-4.272-27.597-5.859l-1.606-0.209v-67.887h-37.926v67.887c-11.651 1.796-21.521 3.911-31.186 6.525l1.984-0.457c-2.52-2.345-5.389-4.367-8.51-5.969l-0.213-0.1v-67.887h-213.144c-9.111-3.356-15.749-11.386-17.052-21.104l-0.015-0.134c0.212-9.261 7.77-16.687 17.062-16.687 0.001 0 0.003 0 0.004 0h540.065c0.001 0 0.003 0 0.004 0 9.292 0 16.85 7.426 17.062 16.668v0.020c0 9.102-17.067 21.239-17.067 21.239zM455.111 153.316c-7.206 0-13.274-4.551 7.964-10.619 5.689 6.068-0.379 10.619-7.964 10.619zM986.074 865.185h-948.148c-20.946 0-37.926-16.98-37.926-37.926v0-606.815c0-20.946 16.98-37.926 37.926-37.926v0h758.519c-8.723-9.102 0-16.687 7.964-16.687s17.067 7.585 29.961 16.687c20.859-9.102 28.444-16.687 37.926-16.687s17.067 7.585 0 16.687v0h37.926c12.516-9.102 20.101-16.687 29.203-16.687s17.067 7.585 8.723 16.687v0h37.926c20.946 0 37.926 16.98 37.926 37.926v0 606.815c0 20.946-16.98 37.926-37.926 37.926v0zM986.074 226.133c0-3.142-2.547-5.689-5.689-5.689v0h-936.77c-3.142 0-5.689 2.547-5.689 5.689v0 595.437c0 3.142 2.547 5.689 5.689 5.689v0h936.77c3.142 0 5.689-2.547 5.689-5.689v0zM939.425 789.333h-854.85c-9.481 9.102-17.067 0-17.067-7.585s7.585-16.687 17.067-30.341h825.647v-325.784c12.516-9.102 20.101-16.687 29.203-16.687s17.067 7.585 8.723 16.687v356.124c8.344 7.585 0 16.687-8.723 7.585zM939.425 375.561c-9.102 0-16.687-7.206-29.203-16.687v-62.578h-796.444v417.185c-12.516 9.102-20.101 16.687-29.203 16.687s-17.067-6.068-8.723-16.687v-443.354c-8.344-9.481 8.723-11.757 8.723-11.757h854.85s17.067 2.276 8.723 11.757v88.747c8.344 9.481 0 16.687-8.723 16.687z" />
<glyph unicode="&#xe918;" glyph-name="t-1" d="M698.368 103.936c-1.756-0.085-3.814-0.134-5.883-0.134-68.706 0-124.918 53.49-129.266 121.097l-0.020 0.38v325.12h204.8v153.6h-204.8v256h-153.6c0.033-1.536 0.052-3.347 0.052-5.162 0-123.28-87.14-226.207-203.186-250.546l-1.666-0.292v-153.6h153.6v-365.056c7.143-129.981 114.284-232.676 245.411-232.676 3.724 0 7.429 0.083 11.113 0.247l-0.524-0.019c5.616-0.341 12.181-0.535 18.792-0.535 69.471 0 133.931 21.451 187.119 58.091l-1.111-0.724v151.040c-25.21-34.788-65.711-57.154-111.437-57.154-3.306 0-6.584 0.117-9.831 0.347l0.437-0.025z" />
<glyph unicode="&#xe919;" glyph-name="v-1" d="M858.112 883.2c-129.536 0-230.912-92.672-274.944-248.832 48.128 22.528 134.656 33.792 141.312-44.032s-112.64-281.088-165.376-281.088-91.648 228.864-105.472 333.824-37.888 198.656-137.216 198.656-226.816-133.12-316.416-203.776l46.592-61.952s66.56 51.2 89.6 48.128c60.416-15.872 112.128-259.584 138.24-352.256s58.368-282.624 186.368-282.624c210.944 0 558.080 515.584 558.080 684.032 0 110.592-31.232 209.92-160.768 209.92z" />
<glyph unicode="&#xe91a;" glyph-name="wifi-2" horiz-adv-x="1019" d="M171.265 234.432c-81.616-0.299-147.663-66.531-147.663-148.189 0-81.843 66.347-148.19 148.19-148.19s148.19 66.347 148.19 148.19c0 0.721-0.005 1.44-0.015 2.159l0.001-0.109c-1.156 80.957-67.054 146.14-148.176 146.14-0.185 0-0.371 0-0.556-0.001h0.029zM0 618.496v0-189.212h7.692c264.645-3.144 478.346-216.844 481.487-481.191l0.003-0.3c0-3.589 0-7.692 0-11.794h190.237c0.015 1.677 0.024 3.66 0.024 5.645 0 373.817-303.038 676.855-676.855 676.855-0.91 0-1.819-0.002-2.728-0.005h0.14zM0 960v0-190.75h7.692c453.14-1.725 820.257-367.581 824.018-820.072l0.002-0.358c0.117-1.763 0.183-3.822 0.183-5.897s-0.067-4.134-0.198-6.175l0.014 0.279h187.674c0.014 1.981 0.022 4.325 0.022 6.671 0 561.292-455.017 1016.308-1016.308 1016.308-1.090 0-2.179-0.002-3.267-0.005h0.169z" />
<glyph unicode="&#xe91b;" glyph-name="tiktok-icon-black-1" d="M0 960h1024v-1024h-1024zM250.88 322.176l2.048-5.888c-0.256 0.64-1.024 2.688-2.048 5.888zM333.952 456.448c3.712 31.872 16.256 49.664 39.808 67.968 33.792 24.704 75.904 10.752 75.904 10.752v83.072c10.24 0.256 20.48-0.384 30.592-1.92v-106.88s-42.112 13.952-75.904-10.752c-23.552-18.304-36.096-36.096-39.808-67.968-0.128-17.28 2.944-39.936 17.28-59.392-3.584 1.92-7.168 4.096-10.88 6.528-31.36 22.016-37.12 55.168-36.992 78.592zM654.464 771.84c-23.168 26.496-32 53.376-35.2 72.192h29.184s-5.76-49.408 36.608-97.92l0.64-0.64c-11.52 7.424-22.016 16.384-31.232 26.368zM795.136 696.576v-104.704s-37.248 1.536-64.896 8.832c-38.528 10.24-63.232 25.984-63.232 25.984s-17.152 11.264-18.432 12.032v-216.32c0-12.032-3.2-42.112-12.8-67.2-12.544-32.768-32-54.4-35.584-58.752 0 0-23.68-29.184-65.28-48.768-37.504-17.664-70.528-17.28-80.384-17.664 0 0-56.96-2.304-108.288 32.384-11.136 7.68-21.504 16.384-30.976 25.984l0.256-0.256c51.328-34.816 108.288-32.384 108.288-32.384 9.856 0.384 42.88 0 80.384 17.664 41.6 19.584 65.28 48.768 65.28 48.768 3.584 4.352 23.040 25.984 35.584 58.752 9.6 25.088 12.8 55.168 12.8 67.2v216.192c1.408-0.768 18.432-12.032 18.432-12.032s24.704-15.744 63.232-25.984c27.648-7.296 64.896-8.832 64.896-8.832v82.048c12.8-2.944 23.68-3.712 30.72-2.944zM764.416 699.648v-82.048s-37.248 1.536-64.896 8.832c-38.528 10.24-63.232 25.984-63.232 25.984s-17.152 11.264-18.432 12.032v-216.32c0-12.032-3.2-42.112-12.8-67.2-12.544-32.768-32-54.4-35.584-58.752 0 0-23.68-29.184-65.28-48.768-37.504-17.664-70.528-17.28-80.384-17.664 0 0-56.96-2.304-108.288 32.384l-0.256 0.256c-5.376 5.504-10.496 11.264-15.232 17.28-16.384 20.864-26.368 45.44-28.928 52.48v0.128c-4.096 12.16-12.544 41.6-11.392 69.888 2.048 50.048 18.944 80.896 23.424 88.576 11.776 20.992 27.264 39.808 45.44 55.552 16.128 13.568 34.432 24.448 54.016 32 21.248 8.96 44.032 13.696 67.072 14.080v-83.072s-42.112 13.952-75.904-10.752c-23.552-18.304-36.096-36.096-39.808-67.968-0.128-23.424 5.632-56.576 37.12-78.72 3.712-2.432 7.296-4.608 10.88-6.528 5.504-7.424 12.16-13.952 19.84-19.328 30.848-20.352 56.576-21.76 89.6-8.576 22.016 8.832 38.528 28.672 46.208 50.816 4.864 13.824 4.736 27.648 4.736 41.984v407.808h76.8c3.2-18.816 11.904-45.696 35.2-72.192 9.344-9.984 19.84-18.944 31.232-26.368 3.328-3.712 20.608-21.632 42.88-32.768 11.392-5.76 23.552-10.112 35.968-13.056zM240.512 383.488l1.92-5.504c-0.256 0.64-1.024 2.56-1.92 5.504zM382.592 604.16c-19.712-7.552-37.888-18.432-54.016-32-18.304-15.744-33.664-34.688-45.44-55.68-4.48-7.68-21.376-38.4-23.424-88.576-1.152-28.416 7.424-57.728 11.392-69.888v-0.128c2.56-6.912 12.544-31.616 28.928-52.48 4.736-6.016 9.856-11.776 15.232-17.28-17.408 12.032-32.768 26.496-45.952 43.008-16.256 20.608-26.24 45.056-28.8 52.224v0.256c-4.096 12.16-12.672 41.6-11.392 70.016 2.048 50.048 18.944 80.896 23.424 88.576 11.776 20.992 27.136 39.936 45.44 55.68 16.128 13.568 34.432 24.448 54.016 32 12.288 5.12 25.088 8.832 38.144 11.264 19.712 3.456 39.808 3.712 59.648 0.896v-23.808c-23.168-0.384-45.952-5.12-67.2-14.080zM619.264 844.032h-76.8v-407.808c0-14.336 0-28.16-4.736-41.984-7.808-22.016-24.32-41.984-46.208-50.816-33.024-13.312-58.88-11.776-89.6 8.576-7.68 5.248-14.336 11.776-19.84 19.2 26.24-13.952 49.664-13.696 78.72-2.048 22.016 8.832 38.528 28.8 46.208 50.816 4.864 13.824 4.736 27.648 4.736 41.984v407.808h106.112c-0.128 0-1.28-10.112 1.408-25.728zM764.416 722.304v-22.656c-12.416 2.944-24.576 7.296-35.968 13.056-22.144 11.008-39.424 29.056-42.88 32.768 3.968-2.56 7.936-4.864 12.16-7.040 27.136-13.44 53.632-17.536 66.688-16.128zM621.824 70.656c0-2.944 0.384-5.76 1.28-8.576 0-0.256 0.128-0.384 0.128-0.64 4.224-13.568 16.768-22.784 30.976-22.784v-32.768c-16 0-27.392-0.512-44.8 9.728-19.712 11.776-30.848 33.152-30.848 55.424 0 22.912 12.416 45.952 33.664 57.088 15.36 8.064 27.008 8.064 42.112 8.064v-32.768c-17.92 0-32.384-14.464-32.384-32.384zM686.848 70.656c0-2.944-0.384-5.76-1.28-8.576 0-0.256-0.128-0.384-0.128-0.64-4.224-13.568-16.768-22.784-30.976-22.784v-32.768c15.872 0 27.392-0.512 44.672 9.728 19.84 11.776 30.976 33.152 30.976 55.424 0 22.912-12.416 45.952-33.664 57.088-15.36 8.064-27.008 8.064-42.112 8.064v-32.768c17.92 0 32.384-14.464 32.384-32.384v-0.384zM152.96 165.888h119.936l-11.136-33.024h-31.36v-126.336h-38.528v126.336h-38.912zM470.912 165.888v-33.024h38.912v-126.336h38.656v126.336h31.36l11.136 33.024zM299.008 128.384c10.368 0 18.688 8.32 18.688 18.688s-8.32 18.688-18.688 18.688-18.688-8.32-18.688-18.688 8.32-18.688 18.688-18.688zM280.32 6.656h37.888v108.544h-37.888zM454.4 129.28h-44.288l-38.144-38.144v74.752h-37.632l-0.128-159.104h38.016v41.472l11.776 10.752 36.864-52.224h40.576l-53.376 76.288zM817.664 82.944l46.336 46.336h-44.288l-38.144-38.144v74.752h-37.632l-0.256-159.232h38.016v41.472l11.904 10.752 36.864-52.224h40.576zM720.256 71.168c0-35.968-29.568-65.152-66.048-65.152s-66.048 29.184-66.048 65.152 29.568 65.152 66.048 65.152 66.048-29.184 66.048-65.152zM686.592 71.168c0 17.92-14.464 32.384-32.384 32.384s-32.384-14.464-32.384-32.384 14.464-32.384 32.384-32.384 32.384 14.464 32.384 32.384z" />
<glyph unicode="&#xe91c;" horiz-adv-x="3625" d="M1395.334 343.751v-93.58c-0.909-27.797-6.459-52.818-16.697-74.108-8.325-18.515-21.338-36.169-39.853-50.044-18.515-14.783-43.537-23.156-76.883-23.156-33.394 0-59.325 8.372-77.84 23.156-18.515 13.874-30.572 31.528-38.896 50.044-10.191 21.29-15.74 46.312-16.697 74.108v401.257c0.957 26.888 6.459 51.909 16.697 73.199 8.325 18.515 20.381 37.078 38.896 50.953s44.494 23.204 77.84 23.204c33.394 0 58.368-9.329 76.883-23.204 18.515-13.922 31.528-32.437 39.853-50.953 10.191-21.338 15.788-46.312 16.697-73.199v-93.58h-93.58v93.58c0 18.515-4.641 31.528-14.831 42.628-4.641 4.641-12.965 7.416-23.156 7.416-17.606 0-25.931-12.965-30.572-25.022-2.727-7.416-3.684-15.788-4.641-25.070v-401.257c0.957-19.424 6.507-32.437 15.788-42.58 4.641-4.689 11.1-7.416 19.424-7.416 21.338 0 29.663 11.1 34.303 25.022 2.727 6.459 3.684 14.831 3.684 25.022v93.58h93.58zM1686.983 233.473c-2.727-49.135-17.558-83.39-49.996-110.278-16.697-13.922-39.853-20.381-70.425-20.381-60.282 0-89.897 33.394-104.728 66.741-8.325 19.424-13.874 41.671-14.783 66.693v254.858c2.775 49.135 17.558 85.208 49.996 113.005 15.788 13.97 38.944 20.429 69.516 20.429 60.234 0 90.806-33.394 105.637-65.784 8.325-19.472 13.874-40.81 14.783-64.923v-260.408zM1598.952 491.154c0.957 19.424-2.775 33.346-12.056 44.494-4.641 4.641-12.056 7.416-20.381 7.416-17.654 0-25.070-12.056-28.753-25.931-2.775-7.416-3.684-15.788-2.775-25.931v-254.858c-0.909-19.424 3.732-33.394 12.056-43.537 4.641-4.641 11.1-7.416 19.472-7.416 17.558 0 25.931 11.1 29.615 25.022 2.775 7.416 3.732 15.788 2.775 25.931v254.858zM1988.44 110.278h-93.58v33.394c-15.74-14.831-29.615-25.931-47.221-34.303-9.329-4.641-18.563-6.459-26.888-6.459-25.931 0-43.537 14.831-54.684 34.303-12.056 18.515-17.558 43.537-17.558 64.827v323.417c0 21.29 5.55 46.312 17.558 65.784 11.147 18.515 28.753 33.394 54.684 33.394 17.558 0 36.169-10.191 50.044-20.429 8.325-6.459 15.74-12.965 24.065-20.381v207.59h93.58v-681.137zM1894.86 505.985c0 14.831-13.922 30.572-27.797 30.572-13.922 0-25.022-12.965-25.022-30.572v-284.473c0-17.654 11.1-30.572 25.022-30.572 13.874 0 27.797 12.965 27.797 30.572v284.473zM2297.935 291.937v-58.416c-2.775-49.135-17.558-83.39-50.953-110.278-16.697-13.922-39.853-20.381-70.425-20.381-60.234 0-90.806 33.394-105.637 66.741-8.325 19.424-13.874 41.671-14.831 66.693v254.858c2.775 49.135 18.515 85.208 51.909 113.005 15.788 13.97 38.944 20.429 69.516 20.429 60.234 0 90.806-33.394 105.637-65.784 8.325-19.472 13.874-40.81 14.783-64.923v-147.356h-154.771v-110.278c0.957-19.424 6.459-33.394 14.831-43.537 4.641-4.641 11.1-7.416 19.472-7.416 17.606 0 25.931 11.1 29.615 25.022 2.775 7.416 3.684 15.788 3.684 25.931v55.641h87.122zM2143.164 419.821h67.65v71.381c0 19.424-3.684 33.346-12.965 44.494-4.641 4.641-12.056 7.416-20.381 7.416-17.654 0-25.070-12.056-29.663-25.931-2.775-7.416-3.684-15.788-4.641-25.931v-71.381zM2547.483 520.817c-8.325 2.775-17.558 3.684-25.931 3.684-14.783 0-32.437-1.866-47.221-15.74-17.654-14.831-20.429-30.572-20.429-46.312v-352.17h-93.58v506.942h93.58v-56.55c0.957 6.459 7.416 22.247 22.247 37.078 14.831 13.922 37.078 26.888 71.334 26.888v-103.819zM2588.34 110.278v681.137h78.797c92.624 0 142.715-18.515 169.555-70.425 25.931-51.909 29.663-137.165 29.663-270.599s-3.732-217.78-29.663-269.69c-26.84-51.909-76.931-70.425-169.555-70.425h-78.797zM2688.475 210.365c34.255 0 53.727 3.732 63.918 37.126 4.641 15.74 8.372 39.853 9.281 72.29 0.957 32.437 0.957 75.974 0.957 131.615 0 55.593 0 99.13-0.957 131.615-0.909 31.481-4.641 55.593-9.281 72.29-10.143 32.437-29.615 36.121-63.918 36.121v-480.963zM3163.889 233.521c-2.727-49.135-17.558-83.39-49.996-110.278-16.697-13.922-39.853-20.381-70.425-20.381-60.282 0-89.897 33.394-104.728 66.741-8.325 19.424-13.922 41.671-14.783 66.693v254.858c2.775 49.135 17.606 85.208 49.996 113.005 15.788 13.97 38.944 20.429 69.516 20.429 60.234 0 90.806-33.394 105.637-65.784 8.325-19.472 13.874-40.81 14.783-64.923v-260.408zM3075.858 491.202c0.957 19.424-2.775 33.346-12.056 44.494-4.641 4.641-12.056 7.416-20.381 7.416-17.654 0-25.070-12.056-28.753-25.931-2.775-7.416-3.684-15.788-2.775-25.931v-254.858c-0.909-19.424 3.732-33.394 12.056-43.537 4.641-4.641 11.1-7.416 19.472-7.416 17.606 0 25.931 11.1 29.615 25.022 2.775 7.416 3.732 15.788 2.775 25.931v254.858zM3226.228 791.463h93.58v-93.58h-93.58v93.58zM3319.808 617.22v-519.859c0-25.931 0-66.741-12.965-100.135-12.965-34.255-41.671-61.143-94.537-61.143-14.783 0-25.022 0.957-31.481 2.775-3.732 0.957-6.459 1.866-9.281 2.775v86.165c2.775-0.909 5.55-0.909 8.325-1.818 6.459-0.957 12.056-1.866 17.654-1.866 15.74 0 23.156 12.965 26.84 28.706 0.957 7.416 1.866 15.788 1.866 24.113 0 8.372 0 15.788 0 21.338v518.95h93.58zM3625.38 233.521c-2.727-49.135-17.606-83.39-49.996-110.278-16.697-13.922-39.853-20.381-70.425-20.381-60.282 0-89.897 33.394-104.728 66.741-8.325 19.424-13.874 41.671-14.783 66.693v254.858c2.775 49.135 17.558 85.208 49.996 113.005 15.788 13.97 38.944 20.429 69.516 20.429 60.234 0 90.806-33.394 105.637-65.784 8.325-19.472 13.874-40.81 14.783-64.923v-260.408zM3537.349 491.202c0.957 19.424-2.775 33.346-12.056 44.494-4.641 4.641-12.056 7.416-20.381 7.416-17.606 0-25.070-12.056-28.753-25.931-2.775-7.416-3.684-15.788-2.775-25.931v-254.858c-0.909-19.424 3.732-33.394 12.056-43.537 4.641-4.641 11.1-7.416 19.472-7.416 17.606 0 25.931 11.1 29.663 25.022 2.775 7.416 3.732 15.788 2.775 25.931v254.858z" />
<glyph unicode="&#xe91d;" horiz-adv-x="3625" d="M1010.869 448.574c0-276.99-224.545-501.536-501.536-501.536s-501.536 224.545-501.536 501.536c0 276.99 224.545 501.536 501.536 501.536s501.536-224.545 501.536-501.536z" />
<glyph unicode="&#xe91e;" horiz-adv-x="3625" d="M511.439 960.013c282.464 0 511.439-228.975 511.439-511.439s-228.975-511.439-511.439-511.439c-282.464 0-511.439 228.975-511.439 511.439s228.975 511.439 511.439 511.439zM506.272 933.556c-2.392 0-4.784-0.048-7.176-0.096-264.475-3.827-477.901-219.598-477.901-484.934 0-265.671 213.905-481.585 478.81-484.934-130.993 3.301-236.247 110.66-236.247 242.419 0 133.864 108.651 242.515 242.515 242.515s242.515 108.651 242.515 242.515c0 133.864-108.651 242.515-242.515 242.515z" />
<glyph unicode="&#xe91f;" horiz-adv-x="3625" d="M429.724 643.342v180.798c0 7.894 2.871 14.736 8.66 20.477 5.741 5.741 12.583 8.66 20.525 8.66h94.25c7.798 0 14.544-2.871 20.237-8.66 5.693-5.741 8.516-12.583 8.516-20.477v-180.798c0-8.038-2.871-14.879-8.516-20.572-5.693-5.693-12.583-8.516-20.62-8.516h-93.867c-8.133 0-15.070 2.823-20.716 8.516s-8.42 12.535-8.42 20.572zM552.057 644.442v178.214h-92.097v-178.214h92.097z" />
<glyph unicode="&#xe920;" horiz-adv-x="3625" d="M464.17 96.786h46.407v178.214h-45.642c-4.21 0-7.751 1.483-10.717 4.402s-4.402 6.507-4.402 10.717c0 4.162 1.483 7.751 4.402 10.669s6.507 4.402 10.717 4.402h75.879v-208.451h30.237v62.913c0 4.067 1.483 7.607 4.402 10.621s6.507 4.497 10.669 4.497c4.21 0 7.798-1.483 10.717-4.402 2.918-2.966 4.402-6.507 4.402-10.717v-78.032c0-4.21-1.483-7.798-4.402-10.765-2.918-2.918-6.459-4.354-10.717-4.354h-121.951c-4.21 0-7.751 1.531-10.669 4.545-2.966 3.062-4.402 6.698-4.402 10.908 0 4.067 1.483 7.559 4.402 10.478 2.918 2.871 6.507 4.306 10.669 4.306z" />
<glyph unicode="&#xe921;" glyph-name="sentry-logo-black" horiz-adv-x="2941" d="M1765.834 370.404l-182.465 235.535h-45.401v-315.796h46.016v241.974l187.591-241.974h40.274v315.796h-46.016zM1306.494 428.929h163.394v41.012h-163.558v95.067h184.556v41.012h-231.516v-315.796h233.771v41.012h-186.812zM1114.392 469.039c-63.856 15.257-81.328 27.437-81.328 56.761 0 26.494 23.418 44.335 58.32 44.335 29.078 0 57.705-10.294 87.357-31.457l24.854 35.025c-32.81 25.141-68.286 36.911-111.267 36.911-62.544 0-106.181-36.911-106.181-89.899 0-56.761 36.911-76.406 104.582-92.811 59.509-13.739 77.637-26.658 77.637-55.367s-24.607-46.672-62.954-46.672c-37.198 0-68.942 12.304-102.531 40.274l-27.847-33.138c34.145-29.563 78.996-47.576 128.054-47.576 0.269 0 0.538 0.001 0.807 0.002h-0.041c67.63 0 111.308 36.378 111.308 92.688-0.082 47.78-28.34 73.33-100.932 90.925zM2647.849 605.898l-95.108-148.916-94.329 148.916h-55.080l125.129-190.872v-124.965h47.41v126.401l125.088 189.437zM1849.13 563.163h103.475v-273.061h47.451v273.061h103.475v42.776h-254.277zM2322.948 413.385c47.739 13.165 73.822 46.631 73.822 94.329 0 60.616-44.458 98.43-115.983 98.43h-139.935v-315.796h46.959v113.441h79.646l80.138-113.687h54.834l-86.536 121.315zM2187.607 444.227v119.88h88.587c46.221 0 72.756-21.778 72.756-59.714 0-36.542-28.381-60.165-72.264-60.165zM594.271 691.655c-9.934 16.964-28.071 28.176-48.825 28.176s-38.891-11.212-48.681-27.91l-0.144-0.266-80.384-139.237 20.506-11.771c111.784-65.512 187.683-181.76 196.106-316.305l0.057-1.132h-56.433c-8.39 115.011-73.175 213.242-166.556 267.933l-1.595 0.863-20.506 11.73-74.889-130.215 20.506-11.771c49.364-29.37 83.91-79.227 92.001-137.544l0.113-0.997h-128.902c-0.045-0.001-0.099-0.001-0.153-0.001-5.142 0-9.31 4.168-9.31 9.31 0 1.723 0.468 3.336 1.284 4.72l-0.024-0.044 35.927 62.216c-11.624 9.852-25.239 17.8-40.1 23.132l-0.912 0.286-35.558-62.093c-4.742-8.083-7.543-17.802-7.543-28.176 0-31.144 25.246-56.39 56.389-56.392h177.379v23.5c0 0.022 0 0.048 0 0.074 0 77.999-38.093 147.101-96.69 189.717l-0.674 0.467 28.217 48.887c76.080-53.164 125.247-140.301 125.334-238.925v-23.555h150.311v23.5c-0.147 153.943-79.083 289.418-198.651 368.292l-1.654 1.025 57.048 98.963c1.64 2.799 4.634 4.649 8.059 4.649s6.418-1.85 8.035-4.605l0.024-0.044 248.782-430.918c0.792-1.34 1.26-2.954 1.26-4.677 0-5.142-4.168-9.31-9.31-9.31-0.054 0-0.107 0-0.161 0.001h-58.189c0.738-15.708 0.82-31.416 0-47.082h58.402c31.143 0.002 56.389 25.249 56.389 56.392 0 10.373-2.801 20.092-7.687 28.442l0.144-0.267z" />
<glyph unicode="&#xe922;" glyph-name="Discord-LogoWordmark-White" horiz-adv-x="3011" d="M537.402 508.025c-21.451 0-38.386-18.44-38.386-41.397s17.311-41.397 38.386-41.397c21.451 0 38.386 18.44 38.386 41.397s-17.311 41.397-38.386 41.397zM400.041 508.025c-21.451 0-38.386-18.44-38.386-41.397s17.311-41.397 38.386-41.397c21.451 0 38.386 18.44 38.386 41.397 0.376 22.956-16.935 41.397-38.386 41.397zM720.3 821.133h-504.285c-42.526 0-77.148-34.623-77.148-77.148v-504.285c0-42.526 34.623-77.148 77.148-77.148h426.761l-19.946 68.869 48.171-44.407 45.536-41.773 81.288-70.374v669.119c-0.376 42.526-34.999 77.148-77.524 77.148zM575.036 333.783s-13.548 16.182-24.838 30.107c49.3 13.924 68.116 44.407 68.116 44.407-15.43-10.161-30.107-17.311-43.278-22.204-18.817-7.903-36.881-12.795-54.568-16.182-36.128-6.774-69.245-4.892-97.47 0.376-21.451 4.14-39.891 9.785-55.321 16.182-8.656 3.387-18.064 7.527-27.472 12.795-1.129 0.753-2.258 1.129-3.387 1.882-0.753 0.376-1.129 0.753-1.505 0.753-6.774 3.763-10.537 6.398-10.537 6.398s18.064-29.73 65.858-44.031c-11.29-14.301-25.214-30.859-25.214-30.859-83.169 2.634-114.781 56.826-114.781 56.826 0 120.050 54.192 217.52 54.192 217.52 54.192 40.268 105.373 39.139 105.373 39.139l3.763-4.516c-67.74-19.193-98.599-48.923-98.599-48.923s8.279 4.516 22.204 10.537c40.268 17.688 72.256 22.204 85.427 23.709 2.258 0.376 4.14 0.753 6.398 0.753 22.956 3.011 48.923 3.763 76.019 0.753 35.752-4.14 74.137-14.677 113.276-35.752 0 0-29.73 28.225-93.707 47.418l5.269 6.021s51.558 1.129 105.373-39.139c0 0 54.192-97.47 54.192-217.52 0 0.376-31.612-53.816-114.781-56.45zM1143.297 660.063h-124.942v-140.372l83.169-74.89v136.232h44.407c28.225 0 42.149-13.548 42.149-35.375v-104.244c0-21.827-13.172-36.504-42.149-36.504h-127.953v-79.406h124.942c66.987-0.376 129.835 33.117 129.835 109.889v112.147c0.376 78.277-62.471 112.523-129.458 112.523zM1798.115 435.393v115.158c0 41.397 74.514 50.805 97.094 9.408l68.869 27.849c-27.096 59.46-76.395 76.772-117.416 76.772-66.987 0-133.222-38.762-133.222-114.029v-115.158c0-76.019 66.234-114.029 131.716-114.029 42.149 0 92.578 20.698 120.426 74.89l-73.761 33.87c-18.064-46.289-93.707-34.999-93.707 5.269zM1570.434 534.745c-25.967 5.645-43.278 15.053-44.407 31.236 1.505 38.762 61.342 40.268 96.341 3.011l55.321 42.526c-34.623 42.149-73.761 53.439-114.029 53.439-61.342 0-120.803-34.623-120.803-100.104 0-63.6 48.923-97.846 102.739-106.126 27.472-3.763 57.955-14.677 57.202-33.494-2.258-35.752-76.019-33.87-109.513 6.774l-53.439-50.052c31.236-40.268 73.761-60.589 113.652-60.589 61.342 0 129.458 35.375 132.093 100.104 3.763 81.664-55.697 102.362-115.158 113.276zM1318.292 325.88h84.298v334.183h-84.298v-334.183zM2739.699 660.063h-124.942v-140.372l83.169-74.89v136.232h44.407c28.225 0 42.149-13.548 42.149-35.375v-104.244c0-21.827-13.172-36.504-42.149-36.504h-127.953v-79.406h125.319c66.987-0.376 129.835 33.117 129.835 109.889v112.147c0 78.277-62.847 112.523-129.835 112.523zM2126.653 664.579c-69.245 0-138.114-37.633-138.114-114.781v-114.029c0-76.395 69.245-114.781 138.867-114.781 69.245 0 138.114 38.386 138.114 114.781v114.029c0 76.772-69.621 114.781-138.867 114.781zM2180.845 435.769c0-24.085-27.096-36.504-53.816-36.504-27.096 0-54.192 11.666-54.192 36.504v114.029c0 24.462 26.343 37.633 52.687 37.633 27.472 0 55.321-11.666 55.321-37.633v-114.029zM2568.091 549.798c-1.882 78.277-55.321 109.889-124.19 109.889h-133.598v-334.183h85.427v106.126h15.053l77.524-106.126h105.373l-91.072 114.781c40.268 12.795 65.482 47.794 65.482 109.513zM2445.407 504.638h-49.676v76.395h49.676c53.063 0 53.063-76.395 0-76.395z" />
<glyph unicode="&#xe923;" d="M0 960h1024v-1024h-1024z" />
<glyph unicode="&#xe924;" glyph-name="archlinux-logo-light-scalable1ae4cc2e2469" horiz-adv-x="3081" d="M1034.861 611.066c-41.457 0.068-75.863-8.433-89.166-13.071l-13.697-73.947c-0.033-0.272 68.168 18.187 98.208 17.099 49.737-1.787 54.315-19.009 53.446-42.255 0.848-1.36-12.832 21.004-55.863 21.754-54.286 0.936-130.899-19.221-130.795-101.162-1.463-92.171 68.851-119.286 116.739-119.783 43.052 0.784 63.247 16.304 74.305 24.619 14.528 15.19 31.149 30.465 47 48.791-14.999-27.252-28.002-46.094-41.539-60.518v-12.175l65.442 11.011 0.448 177.884c-0.663 25.177 14.442 121.519-124.528 121.753zM1025.461 456.189c27.126-0.372 58.235-13.743 58.28-45.926 0.14-29.273-36.669-45.011-60.608-44.762-23.949 0.249-55.722 18.821-55.863 47.358 0.459 25.509 29.964 43.986 58.191 43.33zM1202.543 594.628l-0.444-294.575 76.238 14.688 0.129 167.020c0.017 24.869 35.539 53.928 80.107 53.465 9.46 17.114 27.24 60.854 31.572 70.803-99.569 0.239-100.837-28.619-118.154-42.814-0.181 27.080-0.061 43.337-0.061 43.337l-69.385-11.924zM1631.593 555.957c-0.736 0.346-39.761 45.648-118.219 46.005-73.488 1.221-155.917-27.27-157.237-150.494 0.643-108.341 79.183-150.681 157.652-151.507 83.975-0.872 117.388 52.51 119.393 53.833-10.020 8.686-47.549 45.874-47.549 45.874s-23.441-33.377-68.921-33.802c-45.491-0.433-85.033 35.16-85.594 84.823-0.583 49.663 36.351 76.57 85.935 78.744 42.928 0.009 67.694-27.712 67.694-27.712l46.845 54.237zM1727.688 697.725l-71.977-16.92 0.537-383.7 70.903 12.802 0.806 180.57c0.152 18.934 27.391 48.011 72.873 47.090 43.486-0.452 53.206-28.985 53.088-32.587l1.253-209.039 69.918 12.354 0.268 221.661c0.46 21.329-46.72 66.375-122.558 66.695-36.041-0.058-56.001-8.217-66.158-14.234-17.379-13.423-37.241-26.285-56.758-42.703 18.043 23.179 33.19 39.205 47.985 51.118l-0.179 106.892zM1986.088 687.768l32.465 8.125 1.536-386.834-32.984-5.616-1.017 384.326zM2074.357 572.316l28.452 12.667 0.243-277.374-27.478-5.68-1.217 270.386zM2067.595 672.337l22.942 18.726 19.057-21.204-22.951-19.222-19.048 21.7zM2156.311 577.369l32.469 6.625 0.153-57.987c0.006-2.49 17.827 64.779 103.799 63.283 83.473-0.464 97.129-65.087 96.677-79.576l1.030-203.911-28.458-6.177-0.165 201.412c0.33 5.882-13.008 55.621-71.996 55.804-58.977 0.171-99.842-42.839-99.769-70.317l0.47-177.431-32.976-8.615-1.234 276.89zM2673.747 304.336l-32.469-6.624-0.153 57.986c-0.006 2.491-17.838-64.779-103.8-63.283-83.473 0.464-97.129 65.087-96.677 79.575l-1.030 203.913 34.496 6.965 0.533-201.416c0.015-5.5 6.602-56.408 65.59-56.589 58.977-0.172 100.296 35.514 100.588 89.253l-0.421 158.915 32.108 8.194 1.234-276.889zM2737.378 579.656l-22.766-17.814 87.285-114.23-93.098-131.971 24.153-17.923 87.517 122.558 90.324-125.462 22.342 17.818-96.799 134.145 77.223 108.48-23.746 20.079-70.346-100.381-82.088 104.703zM543.344 874.604c-37.983-93.124-60.892-154.037-103.181-244.393 25.928-27.484 57.754-59.491 109.439-95.639-55.566 22.865-93.469 45.821-121.795 69.643-54.122-112.933-138.914-273.801-310.987-582.98 135.243 78.078 240.081 126.214 337.785 144.582-4.195 18.045-6.581 37.563-6.419 57.929l0.16 4.333c2.146 86.647 47.219 153.278 100.613 148.754s94.896-78.475 92.75-165.121c-0.404-16.304-2.243-31.989-5.456-46.536 96.643-18.905 200.36-66.918 333.773-143.94-26.306 48.432-49.787 92.090-72.211 133.67-35.32 27.376-72.161 63.005-147.309 101.576 51.653-13.422 88.635-28.906 117.462-46.215-227.984 424.466-246.446 480.869-324.626 664.337zM2975.649 321.351v23.936h-8.941v3.203h21.511v-3.203h-8.978v-23.936h-3.591zM2991.957 321.351v27.138h5.405l6.424-19.215c0.592-1.789 1.024-3.128 1.296-4.017 0.309 0.987 0.79 2.437 1.444 4.35l6.498 18.882h4.832v-27.138h-3.462v22.714l-7.886-22.714h-3.24l-7.849 23.103v-23.103h-3.462zM974.239 97.403v23.397h-8.74v3.13h21.026v-3.13h-8.776v-23.397h-3.51zM990.18 97.403v26.527h5.284l6.279-18.783c0.579-1.749 1.001-3.058 1.267-3.927 0.301 0.965 0.772 2.383 1.411 4.252l6.351 18.457h4.723v-26.527h-3.384v22.203l-7.708-22.203h-3.167l-7.672 22.583v-22.583h-3.384z" />
<glyph unicode="&#xe925;" d="M250.88 322.176l2.048-5.888c-0.256 0.64-1.024 2.688-2.048 5.888zM333.952 456.448c3.712 31.872 16.256 49.664 39.808 67.968 33.792 24.704 75.904 10.752 75.904 10.752v83.072c10.24 0.256 20.48-0.384 30.592-1.92v-106.88s-42.112 13.952-75.904-10.752c-23.552-18.304-36.096-36.096-39.808-67.968-0.128-17.28 2.944-39.936 17.28-59.392-3.584 1.92-7.168 4.096-10.88 6.528-31.36 22.016-37.12 55.168-36.992 78.592zM654.464 771.84c-23.168 26.496-32 53.376-35.2 72.192h29.184s-5.76-49.408 36.608-97.92l0.64-0.64c-11.52 7.424-22.016 16.384-31.232 26.368zM795.136 696.576v-104.704s-37.248 1.536-64.896 8.832c-38.528 10.24-63.232 25.984-63.232 25.984s-17.152 11.264-18.432 12.032v-216.32c0-12.032-3.2-42.112-12.8-67.2-12.544-32.768-32-54.4-35.584-58.752 0 0-23.68-29.184-65.28-48.768-37.504-17.664-70.528-17.28-80.384-17.664 0 0-56.96-2.304-108.288 32.384-11.136 7.68-21.504 16.384-30.976 25.984l0.256-0.256c51.328-34.816 108.288-32.384 108.288-32.384 9.856 0.384 42.88 0 80.384 17.664 41.6 19.584 65.28 48.768 65.28 48.768 3.584 4.352 23.040 25.984 35.584 58.752 9.6 25.088 12.8 55.168 12.8 67.2v216.192c1.408-0.768 18.432-12.032 18.432-12.032s24.704-15.744 63.232-25.984c27.648-7.296 64.896-8.832 64.896-8.832v82.048c12.8-2.944 23.68-3.712 30.72-2.944z" />
<glyph unicode="&#xe926;" d="M764.416 699.648v-82.048s-37.248 1.536-64.896 8.832c-38.528 10.24-63.232 25.984-63.232 25.984s-17.152 11.264-18.432 12.032v-216.32c0-12.032-3.2-42.112-12.8-67.2-12.544-32.768-32-54.4-35.584-58.752 0 0-23.68-29.184-65.28-48.768-37.504-17.664-70.528-17.28-80.384-17.664 0 0-56.96-2.304-108.288 32.384l-0.256 0.256c-5.376 5.504-10.496 11.264-15.232 17.28-16.384 20.864-26.368 45.44-28.928 52.48v0.128c-4.096 12.16-12.544 41.6-11.392 69.888 2.048 50.048 18.944 80.896 23.424 88.576 11.776 20.992 27.264 39.808 45.44 55.552 16.128 13.568 34.432 24.448 54.016 32 21.248 8.96 44.032 13.696 67.072 14.080v-83.072s-42.112 13.952-75.904-10.752c-23.552-18.304-36.096-36.096-39.808-67.968-0.128-23.424 5.632-56.576 37.12-78.72 3.712-2.432 7.296-4.608 10.88-6.528 5.504-7.424 12.16-13.952 19.84-19.328 30.848-20.352 56.576-21.76 89.6-8.576 22.016 8.832 38.528 28.672 46.208 50.816 4.864 13.824 4.736 27.648 4.736 41.984v407.808h76.8c3.2-18.816 11.904-45.696 35.2-72.192 9.344-9.984 19.84-18.944 31.232-26.368 3.328-3.712 20.608-21.632 42.88-32.768 11.392-5.76 23.552-10.112 35.968-13.056z" />
<glyph unicode="&#xe927;" d="M240.512 383.488l1.92-5.504c-0.256 0.64-1.024 2.56-1.92 5.504z" />
<glyph unicode="&#xe928;" d="M382.592 604.16c-19.712-7.552-37.888-18.432-54.016-32-18.304-15.744-33.664-34.688-45.44-55.68-4.48-7.68-21.376-38.4-23.424-88.576-1.152-28.416 7.424-57.728 11.392-69.888v-0.128c2.56-6.912 12.544-31.616 28.928-52.48 4.736-6.016 9.856-11.776 15.232-17.28-17.408 12.032-32.768 26.496-45.952 43.008-16.256 20.608-26.24 45.056-28.8 52.224v0.256c-4.096 12.16-12.672 41.6-11.392 70.016 2.048 50.048 18.944 80.896 23.424 88.576 11.776 20.992 27.136 39.936 45.44 55.68 16.128 13.568 34.432 24.448 54.016 32 12.288 5.12 25.088 8.832 38.144 11.264 19.712 3.456 39.808 3.712 59.648 0.896v-23.808c-23.168-0.384-45.952-5.12-67.2-14.080z" />
<glyph unicode="&#xe929;" d="M619.264 844.032h-76.8v-407.808c0-14.336 0-28.16-4.736-41.984-7.808-22.016-24.32-41.984-46.208-50.816-33.024-13.312-58.88-11.776-89.6 8.576-7.68 5.248-14.336 11.776-19.84 19.2 26.24-13.952 49.664-13.696 78.72-2.048 22.016 8.832 38.528 28.8 46.208 50.816 4.864 13.824 4.736 27.648 4.736 41.984v407.808h106.112c-0.128 0-1.28-10.112 1.408-25.728zM764.416 722.304v-22.656c-12.416 2.944-24.576 7.296-35.968 13.056-22.144 11.008-39.424 29.056-42.88 32.768 3.968-2.56 7.936-4.864 12.16-7.040 27.136-13.44 53.632-17.536 66.688-16.128z" />
<glyph unicode="&#xe92a;" d="M621.824 70.656c0-2.944 0.384-5.76 1.28-8.576 0-0.256 0.128-0.384 0.128-0.64 4.224-13.568 16.768-22.784 30.976-22.784v-32.768c-16 0-27.392-0.512-44.8 9.728-19.712 11.776-30.848 33.152-30.848 55.424 0 22.912 12.416 45.952 33.664 57.088 15.36 8.064 27.008 8.064 42.112 8.064v-32.768c-17.92 0-32.384-14.464-32.384-32.384z" />
<glyph unicode="&#xe92b;" d="M686.848 70.656c0-2.944-0.384-5.76-1.28-8.576 0-0.256-0.128-0.384-0.128-0.64-4.224-13.568-16.768-22.784-30.976-22.784v-32.768c15.872 0 27.392-0.512 44.672 9.728 19.84 11.776 30.976 33.152 30.976 55.424 0 22.912-12.416 45.952-33.664 57.088-15.36 8.064-27.008 8.064-42.112 8.064v-32.768c17.92 0 32.384-14.464 32.384-32.384v-0.384z" />
<glyph unicode="&#xe92c;" d="M152.96 165.888h119.936l-11.136-33.024h-31.36v-126.336h-38.528v126.336h-38.912zM470.912 165.888v-33.024h38.912v-126.336h38.656v126.336h31.36l11.136 33.024zM299.008 128.384c10.368 0 18.688 8.32 18.688 18.688s-8.32 18.688-18.688 18.688-18.688-8.32-18.688-18.688 8.32-18.688 18.688-18.688zM280.32 6.656h37.888v108.544h-37.888zM454.4 129.28h-44.288l-38.144-38.144v74.752h-37.632l-0.128-159.104h38.016v41.472l11.776 10.752 36.864-52.224h40.576l-53.376 76.288zM817.664 82.944l46.336 46.336h-44.288l-38.144-38.144v74.752h-37.632l-0.256-159.232h38.016v41.472l11.904 10.752 36.864-52.224h40.576zM720.256 71.168c0-35.968-29.568-65.152-66.048-65.152s-66.048 29.184-66.048 65.152 29.568 65.152 66.048 65.152 66.048-29.184 66.048-65.152zM686.592 71.168c0 17.92-14.464 32.384-32.384 32.384s-32.384-14.464-32.384-32.384 14.464-32.384 32.384-32.384 32.384 14.464 32.384 32.384z" />
<glyph unicode="&#xe932;" glyph-name="Netflix_2015_logo" horiz-adv-x="3789" d="M520.999 2.004c-56.998-10.009-114.998-13.010-174.997-21.002l-183.004 535.996v-559c-56.998-5.998-108.997-13.998-162.997-21.998v1024h152.004l207.995-581.009v581.009h160.999v-957.996zM836 585c62.004 0 157.003 3.001 214.001 3.001v-159.997c-71.003 0-153.999 0-214.001-3.001v-238.004c94.004 5.998 188.003 14.005 282.998 17.006v-153.991l-443.002-35.008v944.993h443.002v-160h-282.998v-215zM1713.998 799.996h-165.998v-735.999c-54.001 0-108.001 0-159.993-1.994v737.993h-165.998v160.004h491.997l-0.007-160.004zM1973.996 595.997h219.004v-159.997h-219.004v-363.004h-157.010v887.004h447.013v-160h-290.003v-204.003zM2523.997 213c91.003-1.994 182.997-9.006 272.001-13.998v-158.002c-142.998 9.006-285.999 17.994-431.998 21.002v897.997h159.997v-747zM2930.997 30c51-3.005 105-6.005 156.999-11.996v941.996h-156.999v-930zM3789.002 960l-203.004-487.001 203.004-536.999c-60.006 8-120.005 19.001-180.007 29.002l-114.995 295.994-116.989-272.001c-58.012 10.009-114.010 13.010-172 21.010l205.997 469-186.005 480.996h171.993l105-269.001 112.005 269.001h175.001z" />
<glyph unicode="&#xf08a;" glyph-name="heart-o" d="M950.857 610.286c0 160.571-108.571 194.286-200 194.286-85.143 0-181.143-92-210.857-127.429-13.714-16.571-42.286-16.571-56 0-29.714 35.429-125.714 127.429-210.857 127.429-91.429 0-200-33.714-200-194.286 0-104.571 105.714-201.714 106.857-202.857l332-320 331.429 319.429c1.714 1.714 107.429 98.857 107.429 203.429zM1024 610.286c0-137.143-125.714-252-130.857-257.143l-356-342.857c-6.857-6.857-16-10.286-25.143-10.286s-18.286 3.429-25.143 10.286l-356.571 344c-4.571 4-130.286 118.857-130.286 256 0 167.429 102.286 267.429 273.143 267.429 100 0 193.714-78.857 238.857-123.429 45.143 44.571 138.857 123.429 238.857 123.429 170.857 0 273.143-100 273.143-267.429z" />
<glyph unicode="&#xf099;" glyph-name="twitter" horiz-adv-x="951" d="M925.714 717.714c-25.143-36.571-56.571-69.143-92.571-95.429 0.571-8 0.571-16 0.571-24 0-244-185.714-525.143-525.143-525.143-104.571 0-201.714 30.286-283.429 82.857 14.857-1.714 29.143-2.286 44.571-2.286 86.286 0 165.714 29.143 229.143 78.857-81.143 1.714-149.143 54.857-172.571 128 11.429-1.714 22.857-2.857 34.857-2.857 16.571 0 33.143 2.286 48.571 6.286-84.571 17.143-148 91.429-148 181.143v2.286c24.571-13.714 53.143-22.286 83.429-23.429-49.714 33.143-82.286 89.714-82.286 153.714 0 34.286 9.143 65.714 25.143 93.143 90.857-112 227.429-185.143 380.571-193.143-2.857 13.714-4.571 28-4.571 42.286 0 101.714 82.286 184.571 184.571 184.571 53.143 0 101.143-22.286 134.857-58.286 41.714 8 81.714 23.429 117.143 44.571-13.714-42.857-42.857-78.857-81.143-101.714 37.143 4 73.143 14.286 106.286 28.571z" />
<glyph unicode="&#xf09a;" glyph-name="facebook, facebook-f" horiz-adv-x="602" d="M548 944v-150.857h-89.714c-70.286 0-83.429-33.714-83.429-82.286v-108h167.429l-22.286-169.143h-145.143v-433.714h-174.857v433.714h-145.714v169.143h145.714v124.571c0 144.571 88.571 223.429 217.714 223.429 61.714 0 114.857-4.571 130.286-6.857z" />
<glyph unicode="&#xf0c9;" glyph-name="bars, navicon, reorder" horiz-adv-x="878" d="M877.714 182.857v-73.143c0-20-16.571-36.571-36.571-36.571h-804.571c-20 0-36.571 16.571-36.571 36.571v73.143c0 20 16.571 36.571 36.571 36.571h804.571c20 0 36.571-16.571 36.571-36.571zM877.714 475.428v-73.143c0-20-16.571-36.571-36.571-36.571h-804.571c-20 0-36.571 16.571-36.571 36.571v73.143c0 20 16.571 36.571 36.571 36.571h804.571c20 0 36.571-16.571 36.571-36.571zM877.714 768v-73.143c0-20-16.571-36.571-36.571-36.571h-804.571c-20 0-36.571 16.571-36.571 36.571v73.143c0 20 16.571 36.571 36.571 36.571h804.571c20 0 36.571-16.571 36.571-36.571z" />
<glyph unicode="&#xf106;" glyph-name="angle-up" horiz-adv-x="658" d="M614.286 274.286c0-4.571-2.286-9.714-5.714-13.143l-28.571-28.571c-3.429-3.429-8-5.714-13.143-5.714-4.571 0-9.714 2.286-13.143 5.714l-224.571 224.571-224.571-224.571c-3.429-3.429-8.571-5.714-13.143-5.714s-9.714 2.286-13.143 5.714l-28.571 28.571c-3.429 3.429-5.714 8.571-5.714 13.143s2.286 9.714 5.714 13.143l266.286 266.286c3.429 3.429 8.571 5.714 13.143 5.714s9.714-2.286 13.143-5.714l266.286-266.286c3.429-3.429 5.714-8.571 5.714-13.143z" />
</font>
</defs>
</svg>
